<svg width="16" height="17" viewBox="0 0 16 17" fill="none" xmlns="http://www.w3.org/2000/svg">
<path d="M7.33594 5.83203H8.66927C10.5549 5.83203 11.4977 5.83203 12.0835 6.41782C12.6693 7.0036 12.6693 7.94643 12.6693 9.83203C12.6693 11.7176 12.6693 12.6604 12.0835 13.2462C11.4977 13.832 10.5549 13.832 8.66927 13.832H8.0026C8.0026 13.832 7.66927 15.1654 5.33594 15.1654C5.33594 15.1654 6.0026 14.4929 6.0026 13.8205C4.96697 13.7893 4.34926 13.6738 3.92172 13.2462C3.33594 12.6604 3.33594 11.7176 3.33594 9.83203C3.33594 7.94643 3.33594 7.0036 3.92172 6.41782C4.50751 5.83203 5.45032 5.83203 7.33594 5.83203Z" stroke="#111111" stroke-linejoin="round"/>
<path d="M12.6641 8.16797H12.9974C13.6205 8.16797 13.932 8.16797 14.1641 8.30197C14.3161 8.3897 14.4423 8.51597 14.5301 8.66797C14.6641 8.90004 14.6641 9.21157 14.6641 9.83464C14.6641 10.4577 14.6641 10.7692 14.5301 11.0013C14.4423 11.1533 14.3161 11.2796 14.1641 11.3673C13.932 11.5013 13.6205 11.5013 12.9974 11.5013H12.6641" stroke="#111111" stroke-linejoin="round"/>
<path d="M3.33594 8.16797H3.0026C2.37952 8.16797 2.06799 8.16797 1.83594 8.30197C1.68392 8.3897 1.55768 8.51597 1.46991 8.66797C1.33594 8.90004 1.33594 9.21157 1.33594 9.83464C1.33594 10.4577 1.33594 10.7692 1.46991 11.0013C1.55768 11.1533 1.68392 11.2796 1.83594 11.3673C2.06799 11.5013 2.37952 11.5013 3.0026 11.5013H3.33594" stroke="#111111" stroke-linejoin="round"/>
<path d="M9 2.83398C9 3.38627 8.55227 3.83398 8 3.83398C7.44773 3.83398 7 3.38627 7 2.83398C7 2.2817 7.44773 1.83398 8 1.83398C8.55227 1.83398 9 2.2817 9 2.83398Z" stroke="#111111"/>
<path d="M8 3.83203V5.83203" stroke="#111111" stroke-linecap="round" stroke-linejoin="round"/>
<path d="M6 8.5V9.16667M10 8.5V9.16667" stroke="#111111" stroke-linecap="round" stroke-linejoin="round"/>
<path d="M6.66406 11.5C6.66406 11.5 7.10853 11.8333 7.9974 11.8333C8.88626 11.8333 9.33073 11.5 9.33073 11.5" stroke="#111111" stroke-linecap="round"/>
</svg>
