<svg width="16" height="17" viewBox="0 0 16 17" fill="none" xmlns="http://www.w3.org/2000/svg">
<path d="M1.33594 4.50065C1.33594 3.24357 1.33594 2.61503 1.72646 2.22451C2.11698 1.83398 2.74552 1.83398 4.0026 1.83398C5.25968 1.83398 5.88822 1.83398 6.27874 2.22451C6.66927 2.61503 6.66927 3.24357 6.66927 4.50065V5.83398C6.66927 7.09106 6.66927 7.71958 6.27874 8.11012C5.88822 8.50065 5.25968 8.50065 4.0026 8.50065C2.74552 8.50065 2.11698 8.50065 1.72646 8.11012C1.33594 7.71958 1.33594 7.09106 1.33594 5.83398V4.50065Z" stroke="#111111"/>
<path d="M1.33594 13.166C1.33594 12.5447 1.33594 12.2341 1.43743 11.9891C1.57276 11.6624 1.83232 11.4028 2.15902 11.2675C2.40406 11.166 2.71468 11.166 3.33594 11.166H4.66927C5.29052 11.166 5.60115 11.166 5.84618 11.2675C6.17288 11.4028 6.43245 11.6624 6.56778 11.9891C6.66927 12.2341 6.66927 12.5447 6.66927 13.166C6.66927 13.7873 6.66927 14.0979 6.56778 14.3429C6.43245 14.6696 6.17288 14.9292 5.84618 15.0645C5.60115 15.166 5.29052 15.166 4.66927 15.166H3.33594C2.71468 15.166 2.40406 15.166 2.15902 15.0645C1.83232 14.9292 1.57276 14.6696 1.43743 14.3429C1.33594 14.0979 1.33594 13.7873 1.33594 13.166Z" stroke="#111111"/>
<path d="M9.33594 11.1667C9.33594 9.9096 9.33594 9.28107 9.72647 8.89053C10.117 8.5 10.7455 8.5 12.0026 8.5C13.2597 8.5 13.8882 8.5 14.2787 8.89053C14.6693 9.28107 14.6693 9.9096 14.6693 11.1667V12.5C14.6693 13.7571 14.6693 14.3856 14.2787 14.7761C13.8882 15.1667 13.2597 15.1667 12.0026 15.1667C10.7455 15.1667 10.117 15.1667 9.72647 14.7761C9.33594 14.3856 9.33594 13.7571 9.33594 12.5V11.1667Z" stroke="#111111"/>
<path d="M9.33594 3.83398C9.33594 3.21273 9.33594 2.9021 9.4374 2.65707C9.57274 2.33037 9.83234 2.0708 10.159 1.93548C10.4041 1.83398 10.7147 1.83398 11.3359 1.83398H12.6693C13.2905 1.83398 13.6011 1.83398 13.8462 1.93548C14.1729 2.0708 14.4325 2.33037 14.5678 2.65707C14.6693 2.9021 14.6693 3.21273 14.6693 3.83398C14.6693 4.45524 14.6693 4.76586 14.5678 5.0109C14.4325 5.3376 14.1729 5.59716 13.8462 5.73249C13.6011 5.83398 13.2905 5.83398 12.6693 5.83398H11.3359C10.7147 5.83398 10.4041 5.83398 10.159 5.73249C9.83234 5.59716 9.57274 5.3376 9.4374 5.0109C9.33594 4.76586 9.33594 4.45524 9.33594 3.83398Z" stroke="#111111"/>
</svg>
