<svg width="22" height="32" viewBox="0 0 22 32" fill="none" xmlns="http://www.w3.org/2000/svg">
<path d="M10.2023 6.11018C10.5995 5.82817 10.8477 5.79862 11.2526 6.10825C12.9632 7.41633 14.7069 8.67925 16.4389 9.9588L21.0378 13.3575C21.2072 11.5422 21.084 9.86555 21.1778 8.1928C21.1954 7.88202 21.0274 7.71459 20.8068 7.55176C17.5991 5.18551 14.3949 2.81477 11.1941 0.439539C10.9049 0.224358 10.7177 0.250623 10.4388 0.44627C7.23043 2.70943 4.01654 4.9655 0.79711 7.21449C0.510718 7.41501 0.369962 7.63388 0.3755 8.00838C0.387881 8.9187 0.336123 9.83007 0.335548 10.7415C0.334421 11.463 0.369955 12.1841 0.392182 13.0065C0.676347 12.8084 0.908086 12.649 1.13749 12.4881C4.16324 10.3651 7.19229 8.25134 10.2023 6.11018Z" fill="white"/>
<path d="M11.601 25.8313C10.926 26.2958 10.926 26.2942 10.2905 25.8158C7.31112 23.5874 4.33126 21.3597 1.35092 19.1329C1.18096 19.0058 1.0444 18.7584 0.724723 18.8861C0.70381 20.4583 0.704606 22.0423 0.648048 23.624C0.631266 24.1054 0.81709 24.3669 1.17179 24.6307C4.22623 26.9043 7.27769 29.1811 10.3071 31.4896C10.7486 31.8261 11.0187 31.7603 11.4281 31.4733C14.1861 29.5371 16.9625 27.6267 19.7325 25.708C20.1622 25.4104 20.5878 25.1058 21.0239 24.8181C21.249 24.6674 21.4152 24.5137 21.4189 24.1979C21.4348 22.5266 21.4714 20.8555 21.5036 18.9937C21.0993 19.2689 20.8644 19.426 20.6312 19.587L11.601 25.8313Z" fill="white"/>
<path d="M0.625644 15.8888L10.7766 23.4969L21.2397 16.2872L11.0228 8.80742L0.625644 15.8888Z" stroke="white" stroke-width="0.305441" stroke-miterlimit="10"/>
</svg>
