<svg width="33" height="32" viewBox="0 0 33 32" fill="none" xmlns="http://www.w3.org/2000/svg">
<path d="M19.8336 25.3334H17.167C13.3958 25.3334 11.5101 25.3334 10.3386 24.1618C9.16699 22.9902 9.16699 21.1046 9.16699 17.3334V10.6667C9.16699 6.89551 9.16699 5.00989 10.3386 3.83832C11.5101 2.66675 13.3958 2.66675 17.167 2.66675H18.9579C20.0479 2.66675 20.5928 2.66675 21.083 2.86973C21.573 3.07272 21.9583 3.45809 22.7291 4.22884L26.2715 7.77132C27.0423 8.54205 27.4276 8.92744 27.6307 9.41749C27.8336 9.90755 27.8336 10.4525 27.8336 11.5425V17.3334C27.8336 21.1046 27.8336 22.9902 26.662 24.1618C25.4906 25.3334 23.6048 25.3334 19.8336 25.3334Z" stroke="#292929" stroke-width="2" stroke-linecap="round" stroke-linejoin="round"/>
<path d="M20.5 3.33333V4.66667C20.5 7.18083 20.5 8.4379 21.2811 9.21894C22.0621 10 23.3192 10 25.8333 10H27.1667" stroke="#292929" stroke-width="2" stroke-linecap="round" stroke-linejoin="round"/>
<path d="M9.16699 6.66675C6.95786 6.66675 5.16699 8.45761 5.16699 10.6667V21.3334C5.16699 25.1047 5.16699 26.9903 6.33857 28.1618C7.51014 29.3334 9.39575 29.3334 13.167 29.3334H19.8342C22.0432 29.3334 23.8342 27.5425 23.8342 25.3334" stroke="#292929" stroke-width="2" stroke-linecap="round" stroke-linejoin="round"/>
<path d="M13.833 14.6667H19.1663M13.833 20.0001H23.1663" stroke="#292929" stroke-width="2" stroke-linecap="round" stroke-linejoin="round"/>
</svg>
