<svg width="33" height="32" viewBox="0 0 33 32" fill="none" xmlns="http://www.w3.org/2000/svg">
<path d="M3.83301 15.9999C3.83301 10.0288 3.83301 7.04324 5.68799 5.18824C7.54299 3.33325 10.5286 3.33325 16.4997 3.33325C22.4707 3.33325 25.4563 3.33325 27.3114 5.18824C29.1663 7.04324 29.1663 10.0288 29.1663 15.9999C29.1663 21.971 29.1663 24.9566 27.3114 26.8117C25.4563 28.6666 22.4707 28.6666 16.4997 28.6666C10.5286 28.6666 7.54299 28.6666 5.68799 26.8117C3.83301 24.9566 3.83301 21.971 3.83301 15.9999Z" stroke="#292929" stroke-width="1.5"/>
<path d="M3.83301 12H29.1663" stroke="#292929" stroke-width="1.5" stroke-linejoin="round"/>
<path d="M9.83307 8H9.84504" stroke="#292929" stroke-width="2" stroke-linecap="round" stroke-linejoin="round"/>
<path d="M15.166 8H15.178" stroke="#292929" stroke-width="2" stroke-linecap="round" stroke-linejoin="round"/>
</svg>
