<svg width="41" height="40" viewBox="0 0 41 40" fill="none" xmlns="http://www.w3.org/2000/svg">
<path d="M7.16675 20.0002V24.2405C7.16675 29.6488 7.16675 32.353 8.64353 34.1847C8.94188 34.5547 9.27893 34.8917 9.64896 35.19C11.4806 36.6668 14.1848 36.6668 19.5931 36.6668C20.7691 36.6668 21.3569 36.6668 21.8954 36.4768C22.0074 36.4373 22.1171 36.3918 22.2242 36.3407C22.7394 36.0942 23.1551 35.6785 23.9866 34.847L31.8807 26.9528C32.8442 25.9893 33.3259 25.5077 33.5797 24.895C33.8334 24.2825 33.8334 23.6012 33.8334 22.2387V16.6668C33.8334 10.3814 33.8334 7.23875 31.8807 5.28611C29.9282 3.3335 26.7854 3.3335 20.5001 3.3335M22.1667 35.8335V35.0002C22.1667 30.2862 22.1667 27.9292 23.6312 26.4647C25.0957 25.0002 27.4527 25.0002 32.1667 25.0002H33.0001" stroke="#707070" stroke-width="1.5" stroke-linecap="round" stroke-linejoin="round"/>
<path d="M17.1667 8.3335C16.1837 7.3221 13.5672 3.3335 12.1667 3.3335C10.7663 3.3335 8.14981 7.3221 7.16675 8.3335M12.1667 5.00016V16.6668" stroke="#707070" stroke-width="1.5" stroke-linecap="round" stroke-linejoin="round"/>
</svg>
