<svg width="32" height="32" viewBox="0 0 32 32" fill="none" xmlns="http://www.w3.org/2000/svg">
<path d="M9.99967 23.3333V8.66666C9.99967 7.4205 9.99967 6.79743 9.73173 6.33333C9.55619 6.02929 9.30371 5.77681 8.99967 5.60128C8.53557 5.33333 7.9125 5.33333 6.66634 5.33333C5.42018 5.33333 4.79711 5.33333 4.33301 5.60128C4.02897 5.77681 3.77649 6.02929 3.60095 6.33333C3.33301 6.79743 3.33301 7.4205 3.33301 8.66666V23.3333C3.33301 24.5795 3.33301 25.2025 3.60095 25.6667C3.77649 25.9707 4.02897 26.2232 4.33301 26.3987C4.79711 26.6667 5.42018 26.6667 6.66634 26.6667C7.9125 26.6667 8.53557 26.6667 8.99967 26.3987C9.30371 26.2232 9.55619 25.9707 9.73173 25.6667C9.99967 25.2025 9.99967 24.5795 9.99967 23.3333Z" stroke="#111111" stroke-width="2" stroke-linecap="round" stroke-linejoin="round"/>
<path d="M16.6667 23.3333V12.6667C16.6667 11.4205 16.6667 10.7974 16.3987 10.3333C16.2232 10.0293 15.9707 9.77681 15.6667 9.60128C15.2025 9.33333 14.5795 9.33333 13.3333 9.33333C12.0872 9.33333 11.4641 9.33333 11 9.60128C10.696 9.77681 10.4435 10.0293 10.2679 10.3333C10 10.7974 10 11.4205 10 12.6667V23.3333C10 24.5795 10 25.2025 10.2679 25.6667C10.4435 25.9707 10.696 26.2232 11 26.3987C11.4641 26.6667 12.0872 26.6667 13.3333 26.6667C14.5795 26.6667 15.2025 26.6667 15.6667 26.3987C15.9707 26.2232 16.2232 25.9707 16.3987 25.6667C16.6667 25.2025 16.6667 24.5795 16.6667 23.3333Z" stroke="#111111" stroke-width="2" stroke-linecap="round" stroke-linejoin="round"/>
<path d="M24.9063 13.0412C24.4802 11.869 24.267 11.2829 23.8562 10.9382C23.5873 10.7126 23.2638 10.5617 22.9181 10.5007C22.3899 10.4076 21.8039 10.6211 20.6321 11.0481C19.4615 11.4745 18.8763 11.6878 18.5319 12.0983C18.3066 12.3671 18.1558 12.6903 18.0949 13.0357C18.0017 13.5633 18.2145 14.1488 18.6402 15.3195L21.8342 24.1041C22.2605 25.2764 22.4735 25.8625 22.8843 26.2072C23.1533 26.4328 23.4769 26.5837 23.8225 26.6447C24.3506 26.7379 24.9366 26.5244 26.1086 26.0973C27.2791 25.6709 27.8643 25.4576 28.2086 25.0471C28.4339 24.7784 28.5847 24.4551 28.6457 24.1097C28.7389 23.5821 28.5261 22.9967 28.1003 21.8259L24.9063 13.0412Z" stroke="#111111" stroke-width="2" stroke-linecap="round" stroke-linejoin="round"/>
</svg>
