<svg width="20" height="20" viewBox="0 0 20 20" fill="none" xmlns="http://www.w3.org/2000/svg">
<path d="M11.6048 10.6479L9.81458 8.85767C9.57058 8.61367 9.44858 8.49167 9.31692 8.42642C9.0665 8.30231 8.7725 8.30231 8.522 8.42642C8.39042 8.49167 8.26839 8.61367 8.02436 8.85767C7.78032 9.10175 7.6583 9.22375 7.59307 9.35533C7.46898 9.60583 7.46898 9.89983 7.59307 10.1503C7.6583 10.2819 7.78032 10.4039 8.02436 10.6479L9.81458 12.4382M11.6048 10.6479L16.9757 16.0188C17.2197 16.2628 17.3417 16.3848 17.4069 16.5164C17.531 16.7668 17.531 17.0608 17.4069 17.3113C17.3417 17.4429 17.2197 17.5649 16.9757 17.809C16.7316 18.053 16.6096 18.175 16.478 18.2403C16.2275 18.3643 15.9335 18.3643 15.6831 18.2403C15.5514 18.175 15.4294 18.053 15.1854 17.809L9.81458 12.4382M11.6048 10.6479L9.81458 12.4382" stroke="#FDFDFD" stroke-linecap="round" stroke-linejoin="round"/>
<path d="M14.1673 1.66675L14.413 2.33058C14.7351 3.20106 14.8962 3.63629 15.2137 3.95379C15.5312 4.27129 15.9663 4.43234 16.8368 4.75444L17.5007 5.00008L16.8368 5.24572C15.9663 5.56782 15.5312 5.72888 15.2137 6.04637C14.8962 6.36387 14.7351 6.79911 14.413 7.66958L14.1673 8.33341L13.9217 7.66958C13.5996 6.79911 13.4385 6.36387 13.121 6.04637C12.8035 5.72887 12.3683 5.56782 11.4978 5.24572L10.834 5.00008L11.4978 4.75444C12.3683 4.43234 12.8035 4.27129 13.121 3.95379C13.4385 3.63629 13.5996 3.20106 13.9217 2.33058L14.1673 1.66675Z" stroke="#FDFDFD" stroke-linejoin="round"/>
<path d="M5 3.33333L5.18423 3.83121C5.42581 4.48406 5.5466 4.81049 5.78472 5.04862C6.02284 5.28673 6.34927 5.40752 7.00212 5.6491L7.5 5.83333L7.00212 6.01757C6.34927 6.25914 6.02284 6.37993 5.78472 6.61806C5.5466 6.85617 5.42581 7.18261 5.18423 7.83546L5 8.33333L4.81577 7.83546C4.57419 7.18261 4.4534 6.85617 4.21528 6.61806C3.97716 6.37993 3.65073 6.25914 2.99788 6.01757L2.5 5.83333L2.99788 5.6491C3.65073 5.40752 3.97716 5.28673 4.21528 5.04861C4.4534 4.81049 4.57419 4.48406 4.81577 3.83121L5 3.33333Z" stroke="#FDFDFD" stroke-linejoin="round"/>
</svg>
