<svg width="32" height="32" viewBox="0 0 32 32" fill="none" xmlns="http://www.w3.org/2000/svg">
<path d="M15.9938 16.667H16.0058M21.3211 16.667H21.3331M10.6665 16.667H10.6785" stroke="#111111" stroke-width="2" stroke-linecap="round" stroke-linejoin="round"/>
<path d="M17.9998 4.0449C16.3748 3.97142 14.7089 3.98819 13.1057 4.09477C7.52835 4.46551 3.08571 8.97117 2.72015 14.6276C2.64862 15.7346 2.64862 16.881 2.72015 17.9879C2.8533 20.048 3.76441 21.9555 4.83705 23.5662C5.45985 24.6938 5.04882 26.1011 4.40011 27.3304C3.93238 28.2168 3.69851 28.66 3.88629 28.9801C4.07407 29.3003 4.49351 29.3105 5.33241 29.3309C6.99139 29.3713 8.11007 28.901 8.99807 28.2462C9.5017 27.8748 9.75353 27.6891 9.92709 27.6677C10.1006 27.6464 10.4422 27.7871 11.1252 28.0684C11.739 28.3212 12.4518 28.4772 13.1057 28.5207C15.0046 28.6469 16.9912 28.6472 18.894 28.5207C24.4713 28.15 28.914 23.6443 29.2796 17.9879C29.3077 17.5519 29.3248 17.11 29.3308 16.6667" stroke="#111111" stroke-width="1.5" stroke-linecap="round" stroke-linejoin="round"/>
<path d="M21.3335 10.0003C21.9888 10.6746 23.7332 13.3337 24.6668 13.3337M24.6668 13.3337C25.6004 13.3337 27.3448 10.6746 28.0002 10.0003M24.6668 13.3337V2.66699" stroke="#111111" stroke-width="1.5" stroke-linecap="round" stroke-linejoin="round"/>
</svg>
