<svg width="32" height="32" viewBox="0 0 32 32" fill="none" xmlns="http://www.w3.org/2000/svg">
<path d="M12.191 14.2546L12.4669 13.9788C15.1052 11.3404 19.3828 11.3404 22.021 13.9788C24.6594 16.617 24.6594 20.8946 22.021 23.5329L18.1994 27.3545C15.5612 29.9929 11.2836 29.9929 8.64523 27.3545C6.00693 24.7162 6.00693 20.4386 8.64523 17.8004L9.26437 17.1813" stroke="#141B34" stroke-width="1.5" stroke-linecap="round"/>
<path d="M22.7355 14.819L23.3545 14.1999C25.9929 11.5616 25.9929 7.28404 23.3545 4.64572C20.7163 2.00742 16.4387 2.00742 13.8004 4.64572L9.97873 8.4674C7.34042 11.1057 7.34042 15.3833 9.97873 18.0215C12.617 20.6599 16.8947 20.6599 19.5329 18.0215L19.8088 17.7457" stroke="#141B34" stroke-width="1.5" stroke-linecap="round"/>
</svg>
