<svg width="32" height="32" viewBox="0 0 32 32" fill="none" xmlns="http://www.w3.org/2000/svg">
<path d="M5.33268 20.6668C4.62544 20.6668 3.94716 20.3858 3.44706 19.8857C2.94697 19.3856 2.66602 18.7073 2.66602 18.0001C2.66602 17.2928 2.94697 16.6146 3.44706 16.1145C3.94716 15.6144 4.62544 15.3334 5.33268 15.3334M26.666 20.6668C27.3733 20.6668 28.0515 20.3858 28.5516 19.8857C29.0517 19.3856 29.3327 18.7073 29.3327 18.0001C29.3327 17.2928 29.0517 16.6146 28.5516 16.1145C28.0515 15.6144 27.3733 15.3334 26.666 15.3334M9.33268 9.33342V5.33342M22.666 9.33342V5.33342" stroke="#292929" stroke-width="1.5" stroke-linecap="round" stroke-linejoin="round"/>
<path d="M9.33333 5.33341C10.0697 5.33341 10.6667 4.73646 10.6667 4.00008C10.6667 3.2637 10.0697 2.66675 9.33333 2.66675C8.59695 2.66675 8 3.2637 8 4.00008C8 4.73646 8.59695 5.33341 9.33333 5.33341Z" stroke="#292929" stroke-width="1.5" stroke-linecap="round" stroke-linejoin="round"/>
<path d="M22.6654 5.33341C23.4017 5.33341 23.9987 4.73646 23.9987 4.00008C23.9987 3.2637 23.4017 2.66675 22.6654 2.66675C21.929 2.66675 21.332 3.2637 21.332 4.00008C21.332 4.73646 21.929 5.33341 22.6654 5.33341Z" stroke="#292929" stroke-width="1.5" stroke-linecap="round" stroke-linejoin="round"/>
<path d="M18 9.3335H14C10.2293 9.3335 8.34267 9.3335 7.172 10.5455C6.00133 11.7575 6 13.7082 6 17.6095C6 21.5108 6 23.4615 7.172 24.6735C8.34267 25.8855 10.2293 25.8855 14 25.8855H15.3667C16.4227 25.8855 16.7947 26.1028 17.5227 26.8948C18.3267 27.7708 19.572 28.9402 20.6987 29.2122C22.3 29.5988 22.48 29.0642 22.1227 27.5375C22.0213 27.1028 21.7667 26.4082 22.0347 26.0028C22.1853 25.7762 22.4347 25.7202 22.9347 25.6082C23.7227 25.4322 24.3733 25.1442 24.828 24.6735C26 23.4602 26 21.5108 26 17.6095C26 13.7082 26 11.7575 24.828 10.5455C23.6573 9.3335 21.7707 9.3335 18 9.3335Z" stroke="#292929" stroke-width="1.5" stroke-linecap="round" stroke-linejoin="round"/>
<path d="M12.6667 20.0001C13.4267 20.8094 14.6373 21.3334 16 21.3334C17.3627 21.3334 18.5733 20.8094 19.3333 20.0001M12.012 14.6667H12M20.012 14.6667H20" stroke="#292929" stroke-width="1.5" stroke-linecap="round" stroke-linejoin="round"/>
</svg>
