<svg width="128" height="30" viewBox="0 0 128 30" fill="none" xmlns="http://www.w3.org/2000/svg">
<path d="M97.3753 8.39352C93.9477 8.34118 91.0756 11.2381 91.082 14.7419C91.0863 18.2226 93.8883 21.0591 97.3202 21.0664C101.043 21.0765 103.666 17.8518 103.548 14.7601C103.7 11.7971 101.244 8.4524 97.3753 8.39352ZM97.3316 18.8841C95.1403 18.8775 93.269 16.994 93.2426 14.7746C93.2161 12.5553 95.1339 10.602 97.3416 10.6071C98.4128 10.6156 99.4379 11.0505 100.196 11.8185C100.955 12.5864 101.387 13.6259 101.399 14.7136C101.412 16.9998 99.5716 18.8884 97.3316 18.8841Z" fill="#111111"/>
<path d="M88.5149 14.9513C88.255 14.5951 88.2092 14.3741 88.4433 13.9656C89.7842 11.667 88.2329 8.85298 85.6092 8.78828C84.632 8.76429 83.6541 8.77301 82.6741 8.77446C82.1809 8.77446 82.173 8.78464 82.173 9.29278C82.1687 11.1087 82.1687 12.9261 82.173 14.7449C82.173 16.5855 82.1794 18.4254 82.168 20.2697C82.168 20.615 82.2081 20.8091 82.6276 20.7931C83.7014 20.7531 84.7752 20.7931 85.8447 20.7356C87.2543 20.6629 88.2944 19.936 88.8893 18.6609C89.4842 17.3859 89.3482 16.0963 88.5149 14.9513ZM84.3356 12.2042C84.3356 12.0973 84.3356 12.0486 84.3356 12.0007C84.3521 10.94 84.1925 10.9764 84.9083 10.9669C86.1296 10.9509 86.7181 11.326 86.761 12.154C86.7968 12.849 86.2599 13.4124 85.5082 13.4167C85.1374 13.4167 84.6563 13.5985 84.4187 13.3302C84.166 13.0424 84.38 12.5473 84.3356 12.2042ZM87.0416 17.3284C86.9407 17.9616 86.4203 18.4763 85.7903 18.5257C85.4123 18.5555 85.0307 18.5257 84.6506 18.5395C84.3915 18.549 84.3306 18.4203 84.3335 18.1862C84.3428 17.532 84.3335 16.8835 84.3378 16.2329C84.3428 15.7277 84.3485 15.7241 84.8446 15.7146C84.9878 15.7146 85.131 15.7146 85.3078 15.7146C85.5784 15.7292 85.8898 15.6775 86.1862 15.8033C86.7488 16.041 87.1361 16.7316 87.0416 17.3284Z" fill="#111111"/>
<path d="M35.2932 15.2109C35.4923 14.9332 35.4121 14.6853 35.4128 14.4564C35.4207 12.7379 35.4128 11.0186 35.4185 9.30013C35.4185 8.78255 35.43 8.76001 35.9196 8.77673C36.4594 8.79418 37.0063 8.67423 37.5375 8.85451C37.652 9.37864 37.5876 9.91004 37.5891 10.4371C37.5962 13.56 37.5962 16.6828 37.5891 19.8052V20.7074C35.4493 18.5193 33.4771 16.3777 31.4361 14.303C31.2049 14.4484 31.3094 14.6665 31.308 14.8366C31.2994 16.6038 31.308 18.371 31.3015 20.1382C31.3015 20.6754 31.2929 20.6783 30.7496 20.6841C30.3201 20.6885 29.8905 20.6747 29.461 20.6885C29.2083 20.7001 29.1167 20.594 29.1403 20.3497C29.1439 20.2771 29.1439 20.2043 29.1403 20.1316C29.1403 16.5245 29.1403 12.9177 29.1403 9.31104C29.1403 9.19545 29.151 9.07987 29.1654 8.8109L35.2932 15.2109Z" fill="#111111"/>
<path d="M59.0247 13.1774C59.0247 11.7235 59.0247 10.5371 59.0247 9.35075C59.0247 8.77937 59.0325 8.77791 59.6181 8.76919C59.9997 8.76919 60.3827 8.78955 60.7635 8.76265C61.1215 8.73794 61.2059 8.88623 61.2031 9.22499C61.1895 10.9922 61.1966 12.7594 61.1973 14.5273C61.1973 15.1816 61.1923 15.8358 61.1973 16.4901C61.2009 16.8034 61.2145 17.1145 61.3276 17.4184C61.6476 18.2762 62.473 18.8425 63.3221 18.7712C63.7653 18.7357 64.1837 18.5494 64.5099 18.2426C64.836 17.9358 65.0508 17.5264 65.1196 17.0804C65.1676 16.7456 65.1892 16.4075 65.184 16.0692C65.184 13.8157 65.179 11.5665 65.1797 9.31513C65.1797 8.7801 65.1891 8.77719 65.7346 8.7721C66.1397 8.76774 66.5464 8.78446 66.9515 8.76701C67.2493 8.75393 67.3846 8.84552 67.3703 9.17337C67.3488 9.65607 67.3646 10.1409 67.3653 10.6273C67.3653 12.4912 67.3617 14.355 67.3653 16.2197C67.3777 16.8011 67.309 17.3814 67.1613 17.9432C66.6172 19.866 64.7874 21.1258 62.7988 20.9593C60.8494 20.7958 59.253 19.198 59.0519 17.1916C58.9087 15.766 59.0948 14.3369 59.0247 13.1774Z" fill="#111111"/>
<path d="M117.662 8.89447C118.383 8.89447 119.093 8.90828 119.802 8.88792C120.103 8.87993 120.217 9.06821 120.344 9.27612C120.858 10.1194 121.373 10.9624 121.889 11.8052C122.027 12.0305 122.171 12.253 122.311 12.4747C122.549 12.4325 122.59 12.2188 122.684 12.0669C123.245 11.1669 123.809 10.2691 124.345 9.3539C124.534 9.03114 124.73 8.85812 125.133 8.88356C125.773 8.92354 126.421 8.89447 127.056 8.89447C127.142 9.14745 126.963 9.27684 126.869 9.43023C125.889 11.0346 124.916 12.6433 123.91 14.2281C123.695 14.5719 123.708 14.7987 123.918 15.1317C124.948 16.7607 125.952 18.4066 126.957 20.0524C127.076 20.2494 127.271 20.4158 127.26 20.7735C126.531 20.7735 125.803 20.7684 125.075 20.7735C124.804 20.7735 124.717 20.5758 124.604 20.3933C124 19.4061 123.397 18.4192 122.795 17.4324C122.671 17.2304 122.535 17.037 122.36 16.7724L120.488 19.8306C120.349 20.0565 120.211 20.2826 120.073 20.5089C119.981 20.6579 119.874 20.7728 119.678 20.772C118.947 20.7669 118.216 20.772 117.465 20.772C117.475 20.4485 117.656 20.2755 117.776 20.08C118.782 18.4349 119.785 16.7884 120.814 15.1586C121.037 14.8067 121.043 14.5516 120.814 14.1961C119.848 12.6695 118.909 11.1247 117.967 9.58216C117.847 9.38807 117.656 9.21723 117.662 8.89447Z" fill="#111111"/>
<path d="M52.5334 16.7585C51.9156 17.7632 51.277 18.645 50.8074 19.6118C50.3378 20.5786 49.7078 20.9632 48.6813 20.788C48.3591 20.7327 48.0205 20.7793 47.7041 20.7793C47.5445 20.5234 47.7463 20.3889 47.8358 20.2421C48.8517 18.5781 49.8639 16.9112 50.9098 15.2668C51.1754 14.8496 51.2069 14.5493 50.9255 14.1132C49.9734 12.6375 49.0721 11.1276 48.1522 9.63083C48.0284 9.42874 47.9103 9.22375 47.7363 8.93006C48.576 8.86609 49.3449 8.90171 50.1123 8.90461C50.3528 8.90461 50.4037 9.12851 50.4996 9.28335C51.0329 10.1426 51.5534 11.0091 52.0881 11.8662C52.2256 12.0843 52.3222 12.3438 52.5735 12.5154C53.2228 11.4569 53.8807 10.421 54.497 9.36114C54.7068 8.99766 54.9488 8.86609 55.3561 8.88717C55.9725 8.91988 56.5917 8.89589 57.1995 8.89589C57.3154 9.15541 57.1221 9.28553 57.0327 9.43238C56.0505 11.036 55.0733 12.6353 54.0711 14.2251C53.8628 14.5544 53.8563 14.7892 54.0675 15.1251C55.0962 16.7527 56.0956 18.3963 57.1043 20.0392C57.2288 20.2421 57.3476 20.4492 57.5395 20.772C56.6805 20.7844 55.908 20.7931 55.1377 20.7655C54.8886 20.756 54.822 20.4929 54.7118 20.3148C54.0045 19.1684 53.3037 18.0147 52.5334 16.7585Z" fill="#111111"/>
<path d="M44.7014 15.8923C43.7414 15.8923 42.8609 15.9075 41.9811 15.885C41.6131 15.8755 41.4728 15.986 41.4936 16.3742C41.5222 16.9289 41.4936 17.4872 41.5021 18.0462C41.5093 18.5434 41.5157 18.5551 42.0319 18.5551C43.0814 18.5616 44.1301 18.5551 45.1817 18.5551C45.7752 18.5551 45.7781 18.5631 45.7845 19.1366C45.7888 19.5241 45.7623 19.913 45.7909 20.2997C45.821 20.6995 45.6478 20.7839 45.2898 20.781C43.478 20.7679 41.6661 20.781 39.8542 20.7722C39.3531 20.7722 39.3431 20.7577 39.3423 20.243C39.339 16.587 39.339 12.9314 39.3423 9.27632C39.3423 8.76746 39.3538 8.76092 39.8556 8.75946C41.6675 8.7551 43.4794 8.76456 45.2913 8.7522C45.6349 8.7522 45.8267 8.80817 45.7924 9.22108C45.758 9.63398 45.7924 10.0433 45.7838 10.4569C45.7766 10.9418 45.773 10.9483 45.2576 10.9505C44.2325 10.9556 43.2074 10.9505 42.1794 10.9505C42.0362 10.9505 41.893 10.9505 41.7498 10.9505C41.5694 10.9505 41.5 11.0544 41.5007 11.2267C41.5007 11.9537 41.5064 12.6806 41.4971 13.4076C41.4971 13.6867 41.6539 13.7136 41.8651 13.7121C42.6526 13.7121 43.44 13.731 44.2275 13.7027C44.6133 13.6889 44.7243 13.8314 44.7078 14.2007C44.6842 14.7306 44.7014 15.2613 44.7014 15.8923Z" fill="#111111"/>
<path d="M76.0974 10.6291C75.5247 10.9475 74.9828 11.2419 74.4509 11.553C74.2698 11.6577 74.1609 11.6257 74.0285 11.4702C73.8887 11.3039 73.7153 11.1702 73.5202 11.0779C73.3251 10.9855 73.1127 10.9369 72.8974 10.9351C72.329 10.9213 71.8408 11.2637 71.6991 11.7769C71.563 12.2684 71.7656 12.7874 72.236 13.0854C72.624 13.3326 73.0671 13.4438 73.5045 13.5601C74.1533 13.7274 74.7526 14.0516 75.2512 14.5052C76.3329 15.488 76.7195 16.9695 76.2406 18.3383C75.7616 19.7072 74.5511 20.5919 73.1 20.6958C71.0641 20.8412 69.1305 19.3648 69.0195 17.3955C69.5607 17.2007 70.1456 17.2348 70.6975 17.0953C70.9839 17.0226 71.1435 17.1142 71.2201 17.4057C71.4177 18.1632 72.256 18.5761 72.954 18.5157C73.556 18.4641 74.0765 18.0592 74.2247 17.5111C74.3728 16.963 74.1788 16.4316 73.6827 16.047C73.3513 15.7904 72.959 15.6901 72.5681 15.5854C71.8938 15.4044 71.2609 15.142 70.7176 14.6811C69.638 13.7659 69.2085 12.2945 69.6574 11.018C70.1392 9.64844 71.3232 8.77756 72.755 8.7492C74.1996 8.72158 75.3114 9.31986 76.0974 10.6291Z" fill="#111111"/>
<path d="M107.411 15.8571C107.411 14.3822 107.4 12.9072 107.418 11.4322C107.423 11.0571 107.318 10.9197 106.938 10.9452C106.464 10.9772 105.986 10.9452 105.506 10.9546C105.298 10.9546 105.195 10.8768 105.213 10.6595C105.213 10.6355 105.213 10.6115 105.213 10.5868C105.236 10.0103 105.164 9.43167 105.253 8.85665C105.785 8.67782 106.332 8.78396 106.871 8.77887C108.347 8.76142 109.824 8.77451 111.3 8.7716C111.902 8.7716 111.872 8.74543 111.872 9.37496C111.872 9.7617 111.859 10.1492 111.877 10.5381C111.89 10.8354 111.809 10.9779 111.484 10.9612C111.033 10.9379 110.579 10.9517 110.124 10.9568C109.562 10.9626 109.557 10.9655 109.556 11.5631C109.553 13.062 109.553 14.5612 109.556 16.0607C109.556 17.4419 109.556 18.8173 109.556 20.1948C109.556 20.772 109.548 20.7764 108.959 20.7764C108.601 20.78 108.243 20.7582 107.885 20.7815C107.511 20.8069 107.394 20.6586 107.4 20.2813C107.418 18.9518 107.407 17.6222 107.407 16.2919L107.411 15.8571Z" fill="#111111"/>
<path d="M115.663 14.7994C115.663 16.6167 115.663 18.4275 115.663 20.2413C115.663 20.7589 115.651 20.7654 115.154 20.7749C114.725 20.7836 114.295 20.7669 113.866 20.7792C113.588 20.7879 113.473 20.668 113.49 20.3932C113.496 20.2733 113.49 20.1519 113.49 20.0297V9.50719C113.49 9.3618 113.497 9.21641 113.49 9.07102C113.481 8.85875 113.57 8.76498 113.783 8.76789C114.213 8.77516 114.642 8.76789 115.072 8.76789C115.655 8.77298 115.661 8.77516 115.663 9.34944C115.665 11.1687 115.665 12.9854 115.663 14.7994Z" fill="#111111"/>
<path d="M9.56872 5.72821C9.94114 5.46382 10.1739 5.43612 10.5534 5.7264C12.1571 6.95272 13.7918 8.1367 15.4156 9.33627L19.727 12.5226C19.8858 10.8207 19.7703 9.24885 19.8583 7.68065C19.8747 7.3893 19.7172 7.23233 19.5104 7.07968C16.5032 4.86133 13.4993 2.63878 10.4986 0.412008C10.2274 0.210277 10.0519 0.2349 9.79045 0.418318C6.78264 2.54002 3.76964 4.65508 0.751438 6.76349C0.482946 6.95147 0.350988 7.15666 0.35618 7.50776C0.367787 8.36118 0.319264 9.21559 0.318726 10.0701C0.317669 10.7464 0.350981 11.4225 0.371819 12.1935C0.638223 12.0078 0.855477 11.8583 1.07054 11.7075C3.90717 9.71719 6.74689 7.73554 9.56872 5.72821Z" fill="#111111"/>
<path d="M10.8754 24.2169C10.2427 24.6523 10.2426 24.6508 9.64683 24.2023C6.85369 22.1132 4.06008 20.0247 1.26603 17.9371C1.10668 17.818 0.978667 17.586 0.678969 17.7058C0.659364 19.1797 0.66011 20.6646 0.607086 22.1475C0.591354 22.5988 0.765562 22.844 1.0981 23.0913C3.96161 25.2228 6.82234 27.3573 9.66239 29.5215C10.0763 29.837 10.3296 29.7752 10.7133 29.5062C13.299 27.691 15.9018 25.9 18.4987 24.1013C18.9015 23.8222 19.3006 23.5367 19.7093 23.2669C19.9204 23.1257 20.0762 22.9816 20.0796 22.6855C20.0946 21.1187 20.1289 19.552 20.159 17.8066C19.78 18.0646 19.5598 18.2119 19.3412 18.3629L10.8754 24.2169Z" fill="#111111"/>
<path d="M0.587822 14.8953L10.1043 22.0279L19.9134 15.2689L10.3351 8.25661L0.587822 14.8953Z" stroke="#111111" stroke-width="0.36271" stroke-miterlimit="10"/>
</svg>
