<svg width="40" height="40" viewBox="0 0 40 40" fill="none" xmlns="http://www.w3.org/2000/svg">
<g clip-path="url(#clip0_693_7985)">
<mask id="mask0_693_7985" style="mask-type:luminance" maskUnits="userSpaceOnUse" x="0" y="0" width="40" height="40">
<path d="M0 0H40V40H0V0Z" fill="white"/>
</mask>
<g mask="url(#mask0_693_7985)">
<path d="M31.9306 13.6262C32.9833 15.547 33.5824 17.7513 33.5824 20.096C33.5824 25.0714 30.886 29.4152 26.8767 31.7529L30.9957 19.8433C31.7651 17.9194 32.0213 16.381 32.0213 15.013C32.0213 14.5165 31.9886 14.0557 31.9306 13.6262ZM21.9551 13.773C22.767 13.7303 23.4986 13.6449 23.4986 13.6449C24.2253 13.5589 24.1395 12.491 23.4126 12.5335C23.4126 12.5335 21.2281 12.7049 19.818 12.7049C18.4929 12.7049 16.2662 12.5335 16.2662 12.5335C15.5389 12.491 15.4537 13.6019 16.1806 13.6449C16.1806 13.6449 16.8686 13.7303 17.5953 13.773L19.6962 19.53L16.7445 28.3813L11.8337 13.773C12.6462 13.7303 13.377 13.6449 13.377 13.6449C14.1032 13.5589 14.0175 12.491 13.2908 12.5335C13.2908 12.5335 11.1068 12.7049 9.69652 12.7049C9.44351 12.7049 9.14525 12.6987 8.82858 12.6886C11.24 9.02763 15.3848 6.61001 20.0965 6.61001C23.6073 6.61001 26.8041 7.95239 29.2033 10.1508C29.1453 10.1473 29.0886 10.14 29.0287 10.14C27.704 10.14 26.764 11.294 26.764 12.5335C26.764 13.6449 27.4053 14.5852 28.0887 15.6965C28.6016 16.5948 29.2006 17.7486 29.2006 19.4159C29.2006 20.57 28.7567 21.9095 28.1745 23.7756L26.8289 28.27L21.9551 13.773ZM20.0965 33.5832C18.7727 33.5832 17.4951 33.3891 16.2865 33.0337L20.3333 21.2757L24.4784 32.6327C24.5057 32.6994 24.5392 32.7608 24.5749 32.8186C23.1732 33.3121 21.667 33.5832 20.0965 33.5832ZM6.61049 20.096C6.61049 18.1408 7.02985 16.2848 7.77827 14.6076L14.2114 32.2333C9.71224 30.0476 6.61049 25.4341 6.61049 20.096ZM20.0965 5.09652C11.8256 5.09652 5.09668 11.8252 5.09668 20.096C5.09668 28.3672 11.8256 35.0967 20.0965 35.0967C28.3673 35.0967 35.0965 28.3672 35.0965 20.096C35.0965 11.8252 28.3673 5.09652 20.0965 5.09652Z" fill="#117BC9"/>
</g>
</g>
<defs>
<clipPath id="clip0_693_7985">
<rect width="40" height="40" fill="white"/>
</clipPath>
</defs>
</svg>
