<svg width="32" height="32" viewBox="0 0 32 32" fill="none" xmlns="http://www.w3.org/2000/svg">
<path d="M5.3335 18.6666H11.2283C12.4684 18.6666 13.0885 18.6666 13.2537 19.0401C13.4188 19.4137 12.9969 19.8617 12.153 20.7578L7.30271 25.9088C6.45886 26.8049 6.03692 27.2529 6.2021 27.6265C6.36727 28 6.98734 28 8.22747 28H13.3335" stroke="#111111" stroke-width="1.5" stroke-linecap="round" stroke-linejoin="round"/>
<path d="M5.3335 12L8.14092 5.74036C8.6613 4.58012 8.92147 4 9.3335 4C9.74552 4 10.0057 4.58012 10.5261 5.74036L13.3335 12" stroke="#111111" stroke-width="1.5" stroke-linecap="round" stroke-linejoin="round"/>
<path d="M23.3333 26.6667V5.33337M23.3333 26.6667C22.3997 26.6667 20.6553 24.0076 20 23.3334M23.3333 26.6667C24.2669 26.6667 26.0113 24.0076 26.6667 23.3334" stroke="#111111" stroke-width="1.5" stroke-linecap="round" stroke-linejoin="round"/>
</svg>
