<svg width="410" height="520" viewBox="0 0 410 520" fill="none" xmlns="http://www.w3.org/2000/svg">
<g clip-path="url(#clip0_646_5385)">
<rect x="0.5" y="0.5" width="409" height="47" fill="#A0A0A0"/>
<rect x="0.5" y="0.5" width="409" height="47" stroke="#A0A0A0"/>
<path d="M31 20H33C35.8284 20 37.2426 20 38.1213 20.8787C39 21.7574 39 23.1716 39 26C39 28.8284 39 30.2426 38.1213 31.1213C37.2426 32 35.8284 32 33 32H32C32 32 31.5 34 28 34C28 34 29 32.9913 29 31.9827C27.4466 31.9359 26.52 31.7626 25.8787 31.1213C25 30.2426 25 28.8284 25 26C25 23.1716 25 21.7574 25.8787 20.8787C26.7574 20 28.1716 20 31 20Z" stroke="#FDFDFD" stroke-width="1.5" stroke-linejoin="round"/>
<path d="M39 23.5H39.5C40.4346 23.5 40.9019 23.5 41.25 23.701C41.478 23.8326 41.6674 24.022 41.799 24.25C42 24.5981 42 25.0654 42 26C42 26.9346 42 27.4019 41.799 27.75C41.6674 27.978 41.478 28.1674 41.25 28.299C40.9019 28.5 40.4346 28.5 39.5 28.5H39" stroke="#FDFDFD" stroke-width="1.5" stroke-linejoin="round"/>
<path d="M25 23.5H24.5C23.5654 23.5 23.0981 23.5 22.75 23.701C22.522 23.8326 22.3326 24.022 22.201 24.25C22 24.5981 22 25.0654 22 26C22 26.9346 22 27.4019 22.201 27.75C22.3326 27.978 22.522 28.1674 22.75 28.299C23.0981 28.5 23.5654 28.5 24.5 28.5H25" stroke="#FDFDFD" stroke-width="1.5" stroke-linejoin="round"/>
<path d="M33.5 15.5C33.5 16.3284 32.8284 17 32 17C31.1716 17 30.5 16.3284 30.5 15.5C30.5 14.6716 31.1716 14 32 14C32.8284 14 33.5 14.6716 33.5 15.5Z" stroke="#FDFDFD" stroke-width="1.5"/>
<path d="M32 17V20" stroke="#FDFDFD" stroke-width="1.5" stroke-linecap="round" stroke-linejoin="round"/>
<path d="M29 24V25M35 24V25" stroke="#FDFDFD" stroke-width="1.5" stroke-linecap="round" stroke-linejoin="round"/>
<path d="M30 28.5C30 28.5 30.6667 29 32 29C33.3333 29 34 28.5 34 28.5" stroke="#FDFDFD" stroke-width="1.5" stroke-linecap="round"/>
<path d="M72.802 24.926L71.78 24.436L74.972 19.2H76.33L72.802 24.926ZM71.64 29V24.296H72.816V29H71.64ZM71.654 24.926L68.126 19.2H69.498L72.676 24.436L71.654 24.926ZM79.6892 29.168C79.0079 29.168 78.4012 29.014 77.8692 28.706C77.3466 28.3887 76.9359 27.9547 76.6372 27.404C76.3386 26.8533 76.1892 26.2187 76.1892 25.5C76.1892 24.7813 76.3339 24.1467 76.6232 23.596C76.9219 23.0453 77.3326 22.616 77.8552 22.308C78.3872 21.9907 78.9892 21.832 79.6612 21.832C80.3519 21.832 80.9586 21.9907 81.4812 22.308C82.0132 22.616 82.4239 23.0453 82.7132 23.596C83.0119 24.1467 83.1612 24.7813 83.1612 25.5C83.1612 26.2187 83.0119 26.8533 82.7132 27.404C82.4239 27.9547 82.0179 28.3887 81.4952 28.706C80.9726 29.014 80.3706 29.168 79.6892 29.168ZM79.6892 28.132C80.1559 28.132 80.5619 28.02 80.9072 27.796C81.2526 27.572 81.5232 27.264 81.7192 26.872C81.9246 26.48 82.0272 26.0227 82.0272 25.5C82.0272 24.9773 81.9246 24.52 81.7192 24.128C81.5232 23.736 81.2479 23.428 80.8932 23.204C80.5386 22.98 80.1279 22.868 79.6612 22.868C79.2039 22.868 78.7979 22.98 78.4432 23.204C78.0979 23.428 77.8226 23.736 77.6172 24.128C77.4212 24.52 77.3232 24.9773 77.3232 25.5C77.3232 26.0133 77.4212 26.4707 77.6172 26.872C77.8226 27.264 78.1026 27.572 78.4572 27.796C78.8212 28.02 79.2319 28.132 79.6892 28.132ZM89.5183 29L89.4483 27.712V22H90.5683V29H89.5183ZM84.5343 25.584V22H85.6543V25.584H84.5343ZM85.6543 25.584C85.6543 26.2747 85.7337 26.802 85.8923 27.166C86.051 27.53 86.2703 27.782 86.5503 27.922C86.8397 28.0527 87.1617 28.118 87.5163 28.118C88.123 28.118 88.5943 27.8987 88.9303 27.46C89.2757 27.0213 89.4483 26.41 89.4483 25.626H89.9943C89.9943 26.3633 89.887 26.998 89.6723 27.53C89.4577 28.062 89.145 28.468 88.7343 28.748C88.333 29.028 87.8383 29.168 87.2503 29.168C86.709 29.168 86.233 29.0607 85.8223 28.846C85.4117 28.622 85.0943 28.272 84.8703 27.796C84.6463 27.3107 84.5343 26.6853 84.5343 25.92V25.584H85.6543ZM93.139 25.206C93.139 24.45 93.2836 23.8387 93.573 23.372C93.8623 22.896 94.231 22.546 94.679 22.322C95.1363 22.0887 95.617 21.972 96.121 21.972V23.022C95.7103 23.022 95.3136 23.092 94.931 23.232C94.5576 23.3627 94.2496 23.582 94.007 23.89C93.7643 24.198 93.643 24.618 93.643 25.15L93.139 25.206ZM92.523 29V22H93.643V29H92.523ZM107.824 29L103.89 19.2H105.08L109.07 29H107.824ZM99.8584 29L103.848 19.2H105.052L101.118 29H99.8584ZM101.748 26.214V25.15H107.194V26.214H101.748ZM110.509 29V19.2H111.699V29H110.509ZM121.759 29L121.703 27.852V25.304C121.703 24.7533 121.642 24.3007 121.521 23.946C121.399 23.582 121.208 23.3067 120.947 23.12C120.685 22.9333 120.345 22.84 119.925 22.84C119.542 22.84 119.211 22.9193 118.931 23.078C118.66 23.2273 118.436 23.47 118.259 23.806L117.251 23.414C117.428 23.0873 117.643 22.8073 117.895 22.574C118.147 22.3313 118.441 22.1493 118.777 22.028C119.113 21.8973 119.495 21.832 119.925 21.832C120.578 21.832 121.115 21.9627 121.535 22.224C121.964 22.476 122.286 22.854 122.501 23.358C122.715 23.8527 122.818 24.4687 122.809 25.206L122.795 29H121.759ZM119.659 29.168C118.837 29.168 118.193 28.9813 117.727 28.608C117.269 28.2253 117.041 27.698 117.041 27.026C117.041 26.3167 117.274 25.7753 117.741 25.402C118.217 25.0193 118.879 24.828 119.729 24.828H121.731V25.766H119.981C119.327 25.766 118.861 25.8733 118.581 26.088C118.31 26.3027 118.175 26.6107 118.175 27.012C118.175 27.376 118.31 27.6653 118.581 27.88C118.851 28.0853 119.229 28.188 119.715 28.188C120.116 28.188 120.466 28.104 120.765 27.936C121.063 27.7587 121.292 27.5113 121.451 27.194C121.619 26.8673 121.703 26.4847 121.703 26.046H122.179C122.179 26.998 121.964 27.7587 121.535 28.328C121.105 28.888 120.48 29.168 119.659 29.168ZM127.384 31.968C126.936 31.968 126.525 31.9213 126.152 31.828C125.788 31.744 125.475 31.646 125.214 31.534C124.962 31.4313 124.78 31.3427 124.668 31.268L125.088 30.358C125.209 30.4233 125.382 30.5027 125.606 30.596C125.83 30.6987 126.091 30.7827 126.39 30.848C126.698 30.9227 127.024 30.96 127.37 30.96C127.818 30.96 128.219 30.8667 128.574 30.68C128.938 30.5027 129.218 30.218 129.414 29.826C129.619 29.4433 129.722 28.9487 129.722 28.342V22H130.842V28.328C130.842 29.1307 130.692 29.8027 130.394 30.344C130.095 30.8853 129.684 31.2913 129.162 31.562C128.639 31.8327 128.046 31.968 127.384 31.968ZM127.342 28.944C126.716 28.944 126.166 28.7947 125.69 28.496C125.214 28.1973 124.84 27.782 124.57 27.25C124.308 26.7087 124.178 26.0927 124.178 25.402C124.178 24.6927 124.308 24.072 124.57 23.54C124.84 22.9987 125.214 22.5787 125.69 22.28C126.166 21.9813 126.716 21.832 127.342 21.832C127.93 21.832 128.443 21.9813 128.882 22.28C129.32 22.5787 129.661 22.9987 129.904 23.54C130.156 24.072 130.282 24.6927 130.282 25.402C130.282 26.102 130.156 26.718 129.904 27.25C129.661 27.782 129.32 28.1973 128.882 28.496C128.443 28.7947 127.93 28.944 127.342 28.944ZM127.608 27.978C128.018 27.978 128.382 27.866 128.7 27.642C129.017 27.418 129.264 27.1147 129.442 26.732C129.619 26.34 129.708 25.8873 129.708 25.374C129.708 24.8793 129.614 24.4407 129.428 24.058C129.25 23.666 129.003 23.3627 128.686 23.148C128.378 22.924 128.014 22.812 127.594 22.812C127.155 22.812 126.763 22.924 126.418 23.148C126.082 23.3627 125.816 23.666 125.62 24.058C125.433 24.4407 125.34 24.8793 125.34 25.374C125.34 25.8873 125.438 26.34 125.634 26.732C125.83 27.1147 126.096 27.418 126.432 27.642C126.777 27.866 127.169 27.978 127.608 27.978ZM135.866 29.168C135.185 29.168 134.583 29.014 134.06 28.706C133.538 28.3887 133.127 27.9547 132.828 27.404C132.539 26.8533 132.394 26.2187 132.394 25.5C132.394 24.7813 132.539 24.1467 132.828 23.596C133.127 23.0453 133.533 22.616 134.046 22.308C134.569 21.9907 135.166 21.832 135.838 21.832C136.492 21.832 137.056 21.9953 137.532 22.322C138.008 22.6393 138.377 23.0873 138.638 23.666C138.9 24.2447 139.03 24.926 139.03 25.71H133.248L133.528 25.472C133.528 26.032 133.626 26.5127 133.822 26.914C134.028 27.3153 134.312 27.6233 134.676 27.838C135.04 28.0433 135.456 28.146 135.922 28.146C136.417 28.146 136.832 28.0293 137.168 27.796C137.514 27.5627 137.78 27.2547 137.966 26.872L138.932 27.362C138.755 27.726 138.517 28.0433 138.218 28.314C137.929 28.5847 137.584 28.7947 137.182 28.944C136.79 29.0933 136.352 29.168 135.866 29.168ZM133.598 24.996L133.304 24.772H138.134L137.84 25.01C137.84 24.562 137.752 24.1747 137.574 23.848C137.397 23.5213 137.159 23.2693 136.86 23.092C136.562 22.9147 136.216 22.826 135.824 22.826C135.442 22.826 135.078 22.9147 134.732 23.092C134.396 23.2693 134.121 23.5213 133.906 23.848C133.701 24.1653 133.598 24.548 133.598 24.996ZM140.443 29V22H141.493L141.563 23.288V29H140.443ZM145.357 29V25.416H146.477V29H145.357ZM145.357 25.416C145.357 24.7253 145.278 24.198 145.119 23.834C144.96 23.47 144.741 23.2227 144.461 23.092C144.181 22.952 143.864 22.882 143.509 22.882C142.893 22.882 142.412 23.1013 142.067 23.54C141.731 23.9693 141.563 24.5807 141.563 25.374H141.017C141.017 24.6367 141.124 24.002 141.339 23.47C141.554 22.938 141.866 22.532 142.277 22.252C142.688 21.972 143.182 21.832 143.761 21.832C144.312 21.832 144.788 21.944 145.189 22.168C145.6 22.3827 145.917 22.728 146.141 23.204C146.374 23.68 146.486 24.3053 146.477 25.08V25.416H145.357ZM150.882 29.168C150.2 29.168 149.673 28.9907 149.3 28.636C148.926 28.2813 148.74 27.782 148.74 27.138V19.816H149.86V27.026C149.86 27.3807 149.953 27.656 150.14 27.852C150.336 28.0387 150.606 28.132 150.952 28.132C151.064 28.132 151.171 28.118 151.274 28.09C151.386 28.0527 151.53 27.9687 151.708 27.838L152.142 28.748C151.899 28.9067 151.68 29.014 151.484 29.07C151.288 29.1353 151.087 29.168 150.882 29.168ZM147.522 22.994V22H151.96V22.994H147.522Z" fill="#FDFDFD"/>
<rect width="410" height="472" transform="translate(0 48)" fill="white"/>
<path d="M202.836 89.332H207.169C213.297 89.332 216.362 89.332 218.265 91.2358C220.169 93.1396 220.169 96.2038 220.169 102.332C220.169 108.46 220.169 111.524 218.265 113.428C216.362 115.332 213.297 115.332 207.169 115.332H205.003C205.003 115.332 203.919 119.665 196.336 119.665C196.336 119.665 198.503 117.48 198.503 115.295C195.137 115.193 193.129 114.818 191.74 113.428C189.836 111.524 189.836 108.46 189.836 102.332C189.836 96.2038 189.836 93.1396 191.74 91.2358C193.644 89.332 196.708 89.332 202.836 89.332Z" stroke="#292929" stroke-width="2" stroke-linejoin="round"/>
<path d="M220.164 96.918H221.247C223.272 96.918 224.285 96.918 225.039 97.3535C225.533 97.6386 225.943 98.049 226.229 98.543C226.664 99.2972 226.664 100.31 226.664 102.335C226.664 104.36 226.664 105.372 226.229 106.126C225.943 106.62 225.533 107.031 225.039 107.316C224.285 107.751 223.272 107.751 221.247 107.751H220.164" stroke="#292929" stroke-width="2" stroke-linejoin="round"/>
<path d="M189.836 96.918H188.753C186.728 96.918 185.715 96.918 184.961 97.3535C184.467 97.6386 184.057 98.049 183.771 98.543C183.336 99.2972 183.336 100.31 183.336 102.335C183.336 104.36 183.336 105.372 183.771 106.126C184.057 106.62 184.467 107.031 184.961 107.316C185.715 107.751 186.728 107.751 188.753 107.751H189.836" stroke="#292929" stroke-width="2" stroke-linejoin="round"/>
<path d="M208.25 79.582C208.25 81.377 206.795 82.832 205 82.832C203.205 82.832 201.75 81.377 201.75 79.582C201.75 77.7871 203.205 76.332 205 76.332C206.795 76.332 208.25 77.7871 208.25 79.582Z" stroke="#292929" stroke-width="2"/>
<path d="M205 82.832V89.332" stroke="#292929" stroke-width="2" stroke-linecap="round" stroke-linejoin="round"/>
<path d="M198.5 98V100.167M211.5 98V100.167" stroke="#292929" stroke-width="2" stroke-linecap="round" stroke-linejoin="round"/>
<path d="M200.664 107.75C200.664 107.75 202.109 108.833 204.997 108.833C207.886 108.833 209.331 107.75 209.331 107.75" stroke="#292929" stroke-width="2" stroke-linecap="round"/>
<path d="M110.896 148V138.2H112.268V148H110.896ZM104.246 148V138.2H105.618V148H104.246ZM105.394 143.59V142.33H111.33V143.59H105.394ZM117.532 148.168C116.85 148.168 116.248 148.014 115.726 147.706C115.203 147.389 114.792 146.955 114.494 146.404C114.195 145.853 114.046 145.219 114.046 144.5C114.046 143.781 114.195 143.147 114.494 142.596C114.792 142.045 115.203 141.616 115.726 141.308C116.258 140.991 116.864 140.832 117.546 140.832C118.19 140.832 118.754 140.995 119.24 141.322C119.725 141.639 120.103 142.097 120.374 142.694C120.654 143.282 120.794 143.977 120.794 144.78H115.138L115.39 144.57C115.39 145.065 115.488 145.494 115.684 145.858C115.88 146.222 116.146 146.502 116.482 146.698C116.818 146.885 117.2 146.978 117.63 146.978C118.096 146.978 118.484 146.871 118.792 146.656C119.109 146.432 119.356 146.152 119.534 145.816L120.682 146.348C120.495 146.712 120.252 147.034 119.954 147.314C119.655 147.585 119.3 147.795 118.89 147.944C118.488 148.093 118.036 148.168 117.532 148.168ZM115.474 143.94L115.208 143.73H119.632L119.38 143.94C119.38 143.529 119.296 143.179 119.128 142.89C118.96 142.591 118.736 142.367 118.456 142.218C118.176 142.059 117.863 141.98 117.518 141.98C117.182 141.98 116.855 142.059 116.538 142.218C116.23 142.367 115.973 142.587 115.768 142.876C115.572 143.165 115.474 143.52 115.474 143.94ZM122.108 148V138.2H123.438V148H122.108ZM125.279 148V138.2H126.609V148H125.279ZM131.615 148.168C130.915 148.168 130.299 148.014 129.767 147.706C129.235 147.389 128.815 146.955 128.507 146.404C128.209 145.853 128.059 145.219 128.059 144.5C128.059 143.781 128.209 143.147 128.507 142.596C128.806 142.045 129.221 141.616 129.753 141.308C130.285 140.991 130.897 140.832 131.587 140.832C132.278 140.832 132.889 140.991 133.421 141.308C133.953 141.616 134.369 142.045 134.667 142.596C134.966 143.147 135.115 143.781 135.115 144.5C135.115 145.219 134.966 145.853 134.667 146.404C134.369 146.955 133.953 147.389 133.421 147.706C132.899 148.014 132.297 148.168 131.615 148.168ZM131.615 146.95C132.035 146.95 132.409 146.847 132.735 146.642C133.062 146.427 133.314 146.138 133.491 145.774C133.678 145.41 133.771 144.985 133.771 144.5C133.771 144.015 133.678 143.59 133.491 143.226C133.314 142.862 133.057 142.577 132.721 142.372C132.385 142.157 132.007 142.05 131.587 142.05C131.158 142.05 130.78 142.157 130.453 142.372C130.127 142.577 129.87 142.862 129.683 143.226C129.497 143.59 129.403 144.015 129.403 144.5C129.403 144.985 129.497 145.41 129.683 145.774C129.87 146.138 130.131 146.427 130.467 146.642C130.803 146.847 131.186 146.95 131.615 146.95ZM136.166 149.61L136.978 146.558H138.42L137.244 149.61H136.166ZM143.299 148V138.2H144.615V148H143.299ZM148.143 148V144.416H149.459V148H148.143ZM148.143 144.416C148.143 143.781 148.069 143.301 147.919 142.974C147.77 142.638 147.565 142.405 147.303 142.274C147.051 142.143 146.762 142.073 146.435 142.064C145.857 142.064 145.409 142.265 145.091 142.666C144.774 143.067 144.615 143.632 144.615 144.36H144.055C144.055 143.623 144.163 142.993 144.377 142.47C144.601 141.938 144.914 141.532 145.315 141.252C145.726 140.972 146.211 140.832 146.771 140.832C147.322 140.832 147.798 140.944 148.199 141.168C148.601 141.392 148.913 141.742 149.137 142.218C149.361 142.685 149.469 143.301 149.459 144.066V144.416H148.143ZM154.297 148.168C153.597 148.168 152.981 148.014 152.449 147.706C151.917 147.389 151.497 146.955 151.189 146.404C150.89 145.853 150.741 145.219 150.741 144.5C150.741 143.781 150.89 143.147 151.189 142.596C151.488 142.045 151.903 141.616 152.435 141.308C152.967 140.991 153.578 140.832 154.269 140.832C154.96 140.832 155.571 140.991 156.103 141.308C156.635 141.616 157.05 142.045 157.349 142.596C157.648 143.147 157.797 143.781 157.797 144.5C157.797 145.219 157.648 145.853 157.349 146.404C157.05 146.955 156.635 147.389 156.103 147.706C155.58 148.014 154.978 148.168 154.297 148.168ZM154.297 146.95C154.717 146.95 155.09 146.847 155.417 146.642C155.744 146.427 155.996 146.138 156.173 145.774C156.36 145.41 156.453 144.985 156.453 144.5C156.453 144.015 156.36 143.59 156.173 143.226C155.996 142.862 155.739 142.577 155.403 142.372C155.067 142.157 154.689 142.05 154.269 142.05C153.84 142.05 153.462 142.157 153.135 142.372C152.808 142.577 152.552 142.862 152.365 143.226C152.178 143.59 152.085 144.015 152.085 144.5C152.085 144.985 152.178 145.41 152.365 145.774C152.552 146.138 152.813 146.427 153.149 146.642C153.485 146.847 153.868 146.95 154.297 146.95ZM165.447 148L167.813 141H169.143L166.763 148H165.447ZM160.729 148L163.053 141H164.257L161.961 148H160.729ZM160.631 148L158.251 141H159.595L161.905 148H160.631ZM165.447 148L163.151 141H164.369L166.679 148H165.447ZM176.815 148.168C176.115 148.168 175.495 148.014 174.953 147.706C174.412 147.389 173.987 146.955 173.679 146.404C173.381 145.853 173.231 145.219 173.231 144.5C173.231 143.781 173.381 143.147 173.679 142.596C173.987 142.045 174.407 141.616 174.939 141.308C175.481 140.991 176.097 140.832 176.787 140.832C177.469 140.832 178.08 140.991 178.621 141.308C179.172 141.625 179.583 142.078 179.853 142.666L178.649 143.17C178.472 142.825 178.215 142.554 177.879 142.358C177.553 142.162 177.175 142.064 176.745 142.064C176.325 142.064 175.952 142.167 175.625 142.372C175.299 142.577 175.042 142.867 174.855 143.24C174.669 143.604 174.575 144.024 174.575 144.5C174.575 144.976 174.669 145.396 174.855 145.76C175.042 146.124 175.303 146.413 175.639 146.628C175.975 146.833 176.353 146.936 176.773 146.936C177.203 146.936 177.585 146.829 177.921 146.614C178.257 146.39 178.509 146.091 178.677 145.718L179.895 146.208C179.625 146.824 179.214 147.305 178.663 147.65C178.122 147.995 177.506 148.168 176.815 148.168ZM185.509 148L185.453 146.782V144.346C185.453 143.833 185.392 143.403 185.271 143.058C185.159 142.713 184.982 142.451 184.739 142.274C184.506 142.097 184.193 142.008 183.801 142.008C183.437 142.008 183.12 142.083 182.849 142.232C182.588 142.381 182.368 142.615 182.191 142.932L181.015 142.484C181.183 142.167 181.393 141.887 181.645 141.644C181.897 141.392 182.2 141.196 182.555 141.056C182.91 140.907 183.325 140.832 183.801 140.832C184.464 140.832 185.014 140.963 185.453 141.224C185.892 141.485 186.218 141.863 186.433 142.358C186.657 142.853 186.764 143.464 186.755 144.192L186.741 148H185.509ZM183.451 148.168C182.62 148.168 181.972 147.981 181.505 147.608C181.048 147.225 180.819 146.698 180.819 146.026C180.819 145.307 181.057 144.761 181.533 144.388C182.018 144.005 182.69 143.814 183.549 143.814H185.495V144.864H183.913C183.269 144.864 182.816 144.967 182.555 145.172C182.294 145.368 182.163 145.643 182.163 145.998C182.163 146.325 182.284 146.581 182.527 146.768C182.779 146.945 183.124 147.034 183.563 147.034C183.946 147.034 184.277 146.955 184.557 146.796C184.837 146.628 185.056 146.395 185.215 146.096C185.374 145.797 185.453 145.457 185.453 145.074H185.915C185.915 146.026 185.71 146.782 185.299 147.342C184.898 147.893 184.282 148.168 183.451 148.168ZM188.43 148V141H189.676L189.76 142.288V148H188.43ZM193.274 148V144.416H194.604V148H193.274ZM193.274 144.416C193.274 143.781 193.199 143.301 193.05 142.974C192.91 142.638 192.709 142.405 192.448 142.274C192.196 142.143 191.902 142.073 191.566 142.064C190.997 142.064 190.553 142.265 190.236 142.666C189.919 143.067 189.76 143.632 189.76 144.36H189.186C189.186 143.623 189.293 142.993 189.508 142.47C189.732 141.938 190.045 141.532 190.446 141.252C190.857 140.972 191.342 140.832 191.902 140.832C192.453 140.832 192.929 140.944 193.33 141.168C193.741 141.392 194.053 141.742 194.268 142.218C194.492 142.685 194.604 143.301 194.604 144.066V144.416H193.274ZM200.017 148V138.2H201.389V148H200.017ZM206.997 148V138.2H208.313V148H206.997ZM211.841 148V144.416H213.157V148H211.841ZM211.841 144.416C211.841 143.781 211.766 143.301 211.617 142.974C211.467 142.638 211.262 142.405 211.001 142.274C210.749 142.143 210.459 142.073 210.133 142.064C209.554 142.064 209.106 142.265 208.789 142.666C208.471 143.067 208.313 143.632 208.313 144.36H207.753C207.753 143.623 207.86 142.993 208.075 142.47C208.299 141.938 208.611 141.532 209.013 141.252C209.423 140.972 209.909 140.832 210.469 140.832C211.019 140.832 211.495 140.944 211.897 141.168C212.298 141.392 212.611 141.742 212.835 142.218C213.059 142.685 213.166 143.301 213.157 144.066V144.416H211.841ZM217.924 148.168C217.243 148.168 216.641 148.014 216.118 147.706C215.596 147.389 215.185 146.955 214.886 146.404C214.588 145.853 214.438 145.219 214.438 144.5C214.438 143.781 214.588 143.147 214.886 142.596C215.185 142.045 215.596 141.616 216.118 141.308C216.65 140.991 217.257 140.832 217.938 140.832C218.582 140.832 219.147 140.995 219.632 141.322C220.118 141.639 220.496 142.097 220.766 142.694C221.046 143.282 221.186 143.977 221.186 144.78H215.53L215.782 144.57C215.782 145.065 215.88 145.494 216.076 145.858C216.272 146.222 216.538 146.502 216.874 146.698C217.21 146.885 217.593 146.978 218.022 146.978C218.489 146.978 218.876 146.871 219.184 146.656C219.502 146.432 219.749 146.152 219.926 145.816L221.074 146.348C220.888 146.712 220.645 147.034 220.346 147.314C220.048 147.585 219.693 147.795 219.282 147.944C218.881 148.093 218.428 148.168 217.924 148.168ZM215.866 143.94L215.6 143.73H220.024L219.772 143.94C219.772 143.529 219.688 143.179 219.52 142.89C219.352 142.591 219.128 142.367 218.848 142.218C218.568 142.059 218.256 141.98 217.91 141.98C217.574 141.98 217.248 142.059 216.93 142.218C216.622 142.367 216.366 142.587 216.16 142.876C215.964 143.165 215.866 143.52 215.866 143.94ZM222.5 148V138.2H223.83V148H222.5ZM225.742 150.8V141H226.988L227.072 142.288V150.8H225.742ZM229.368 148.168C228.78 148.168 228.267 148.014 227.828 147.706C227.399 147.398 227.067 146.969 226.834 146.418C226.601 145.867 226.484 145.228 226.484 144.5C226.484 143.763 226.601 143.123 226.834 142.582C227.067 142.031 227.399 141.602 227.828 141.294C228.267 140.986 228.78 140.832 229.368 140.832C229.993 140.832 230.544 140.986 231.02 141.294C231.496 141.602 231.865 142.031 232.126 142.582C232.397 143.123 232.532 143.763 232.532 144.5C232.532 145.228 232.397 145.867 232.126 146.418C231.865 146.969 231.496 147.398 231.02 147.706C230.544 148.014 229.993 148.168 229.368 148.168ZM229.046 146.964C229.466 146.964 229.835 146.861 230.152 146.656C230.469 146.441 230.717 146.152 230.894 145.788C231.081 145.415 231.174 144.985 231.174 144.5C231.174 144.015 231.085 143.59 230.908 143.226C230.731 142.853 230.483 142.563 230.166 142.358C229.849 142.143 229.48 142.036 229.06 142.036C228.677 142.036 228.332 142.143 228.024 142.358C227.725 142.563 227.492 142.853 227.324 143.226C227.156 143.599 227.072 144.024 227.072 144.5C227.072 144.985 227.156 145.415 227.324 145.788C227.492 146.152 227.725 146.441 228.024 146.656C228.323 146.861 228.663 146.964 229.046 146.964ZM238.257 150.968C238.051 150.968 237.823 150.931 237.571 150.856C237.328 150.781 237.076 150.683 236.815 150.562L237.305 149.47C237.51 149.563 237.687 149.633 237.837 149.68C237.995 149.727 238.121 149.75 238.215 149.75C238.448 149.75 238.644 149.685 238.803 149.554C238.971 149.423 239.106 149.241 239.209 149.008L240.021 147.09L242.513 141H243.941L240.623 148.868C240.445 149.297 240.259 149.671 240.063 149.988C239.867 150.305 239.624 150.548 239.335 150.716C239.055 150.884 238.695 150.968 238.257 150.968ZM239.657 148L236.591 141H238.005L240.539 147.076L240.945 148H239.657ZM247.949 148.168C247.249 148.168 246.633 148.014 246.101 147.706C245.569 147.389 245.149 146.955 244.841 146.404C244.543 145.853 244.393 145.219 244.393 144.5C244.393 143.781 244.543 143.147 244.841 142.596C245.14 142.045 245.555 141.616 246.087 141.308C246.619 140.991 247.231 140.832 247.921 140.832C248.612 140.832 249.223 140.991 249.755 141.308C250.287 141.616 250.703 142.045 251.001 142.596C251.3 143.147 251.449 143.781 251.449 144.5C251.449 145.219 251.3 145.853 251.001 146.404C250.703 146.955 250.287 147.389 249.755 147.706C249.233 148.014 248.631 148.168 247.949 148.168ZM247.949 146.95C248.369 146.95 248.743 146.847 249.069 146.642C249.396 146.427 249.648 146.138 249.825 145.774C250.012 145.41 250.105 144.985 250.105 144.5C250.105 144.015 250.012 143.59 249.825 143.226C249.648 142.862 249.391 142.577 249.055 142.372C248.719 142.157 248.341 142.05 247.921 142.05C247.492 142.05 247.114 142.157 246.787 142.372C246.461 142.577 246.204 142.862 246.017 143.226C245.831 143.59 245.737 144.015 245.737 144.5C245.737 144.985 245.831 145.41 246.017 145.774C246.204 146.138 246.465 146.427 246.801 146.642C247.137 146.847 247.52 146.95 247.949 146.95ZM257.666 148L257.582 146.712V141H258.898V148H257.666ZM252.738 144.584V141H254.068V144.584H252.738ZM254.068 144.584C254.068 145.209 254.138 145.69 254.278 146.026C254.428 146.362 254.633 146.595 254.894 146.726C255.156 146.857 255.45 146.927 255.776 146.936C256.346 146.936 256.789 146.735 257.106 146.334C257.424 145.933 257.582 145.368 257.582 144.64H258.156C258.156 145.377 258.044 146.012 257.82 146.544C257.606 147.067 257.298 147.468 256.896 147.748C256.495 148.028 256.005 148.168 255.426 148.168C254.885 148.168 254.409 148.056 253.998 147.832C253.597 147.608 253.284 147.258 253.06 146.782C252.846 146.306 252.738 145.69 252.738 144.934V144.584H254.068ZM266.874 148.168C266.174 148.168 265.633 147.991 265.25 147.636C264.867 147.272 264.676 146.754 264.676 146.082V138.816H266.006V145.886C266.006 146.231 266.09 146.497 266.258 146.684C266.435 146.861 266.687 146.95 267.014 146.95C267.107 146.95 267.21 146.931 267.322 146.894C267.434 146.857 267.569 146.782 267.728 146.67L268.232 147.706C267.989 147.865 267.756 147.981 267.532 148.056C267.317 148.131 267.098 148.168 266.874 148.168ZM263.486 142.148V141H267.994V142.148H263.486ZM272.654 148.168C271.954 148.168 271.338 148.014 270.806 147.706C270.274 147.389 269.854 146.955 269.546 146.404C269.248 145.853 269.098 145.219 269.098 144.5C269.098 143.781 269.248 143.147 269.546 142.596C269.845 142.045 270.26 141.616 270.792 141.308C271.324 140.991 271.936 140.832 272.626 140.832C273.317 140.832 273.928 140.991 274.46 141.308C274.992 141.616 275.408 142.045 275.706 142.596C276.005 143.147 276.154 143.781 276.154 144.5C276.154 145.219 276.005 145.853 275.706 146.404C275.408 146.955 274.992 147.389 274.46 147.706C273.938 148.014 273.336 148.168 272.654 148.168ZM272.654 146.95C273.074 146.95 273.448 146.847 273.774 146.642C274.101 146.427 274.353 146.138 274.53 145.774C274.717 145.41 274.81 144.985 274.81 144.5C274.81 144.015 274.717 143.59 274.53 143.226C274.353 142.862 274.096 142.577 273.76 142.372C273.424 142.157 273.046 142.05 272.626 142.05C272.197 142.05 271.819 142.157 271.492 142.372C271.166 142.577 270.909 142.862 270.722 143.226C270.536 143.59 270.442 144.015 270.442 144.5C270.442 144.985 270.536 145.41 270.722 145.774C270.909 146.138 271.17 146.427 271.506 146.642C271.842 146.847 272.225 146.95 272.654 146.95ZM282.736 148L282.68 146.698V138.2H283.996V148H282.736ZM280.383 148.168C279.749 148.168 279.194 148.014 278.718 147.706C278.251 147.398 277.882 146.969 277.611 146.418C277.35 145.867 277.22 145.228 277.22 144.5C277.22 143.763 277.35 143.123 277.611 142.582C277.882 142.031 278.251 141.602 278.718 141.294C279.194 140.986 279.749 140.832 280.383 140.832C280.972 140.832 281.48 140.986 281.91 141.294C282.348 141.602 282.684 142.031 282.918 142.582C283.151 143.123 283.268 143.763 283.268 144.5C283.268 145.228 283.151 145.867 282.918 146.418C282.684 146.969 282.348 147.398 281.91 147.706C281.48 148.014 280.972 148.168 280.383 148.168ZM280.692 146.964C281.084 146.964 281.429 146.861 281.728 146.656C282.026 146.441 282.26 146.152 282.428 145.788C282.596 145.415 282.68 144.985 282.68 144.5C282.68 144.015 282.596 143.59 282.428 143.226C282.26 142.853 282.026 142.563 281.728 142.358C281.429 142.143 281.079 142.036 280.678 142.036C280.267 142.036 279.903 142.143 279.586 142.358C279.268 142.563 279.021 142.853 278.844 143.226C278.666 143.59 278.578 144.015 278.578 144.5C278.578 144.985 278.666 145.415 278.844 145.788C279.03 146.152 279.282 146.441 279.6 146.656C279.917 146.861 280.281 146.964 280.692 146.964ZM290.14 148L290.084 146.782V144.346C290.084 143.833 290.023 143.403 289.902 143.058C289.79 142.713 289.613 142.451 289.37 142.274C289.137 142.097 288.824 142.008 288.432 142.008C288.068 142.008 287.751 142.083 287.48 142.232C287.219 142.381 286.999 142.615 286.822 142.932L285.646 142.484C285.814 142.167 286.024 141.887 286.276 141.644C286.528 141.392 286.831 141.196 287.186 141.056C287.541 140.907 287.956 140.832 288.432 140.832C289.095 140.832 289.645 140.963 290.084 141.224C290.523 141.485 290.849 141.863 291.064 142.358C291.288 142.853 291.395 143.464 291.386 144.192L291.372 148H290.14ZM288.082 148.168C287.251 148.168 286.603 147.981 286.136 147.608C285.679 147.225 285.45 146.698 285.45 146.026C285.45 145.307 285.688 144.761 286.164 144.388C286.649 144.005 287.321 143.814 288.18 143.814H290.126V144.864H288.544C287.9 144.864 287.447 144.967 287.186 145.172C286.925 145.368 286.794 145.643 286.794 145.998C286.794 146.325 286.915 146.581 287.158 146.768C287.41 146.945 287.755 147.034 288.194 147.034C288.577 147.034 288.908 146.955 289.188 146.796C289.468 146.628 289.687 146.395 289.846 146.096C290.005 145.797 290.084 145.457 290.084 145.074H290.546C290.546 146.026 290.341 146.782 289.93 147.342C289.529 147.893 288.913 148.168 288.082 148.168ZM293.792 150.968C293.586 150.968 293.358 150.931 293.106 150.856C292.863 150.781 292.611 150.683 292.35 150.562L292.84 149.47C293.045 149.563 293.222 149.633 293.372 149.68C293.53 149.727 293.656 149.75 293.75 149.75C293.983 149.75 294.179 149.685 294.338 149.554C294.506 149.423 294.641 149.241 294.744 149.008L295.556 147.09L298.048 141H299.476L296.158 148.868C295.98 149.297 295.794 149.671 295.598 149.988C295.402 150.305 295.159 150.548 294.87 150.716C294.59 150.884 294.23 150.968 293.792 150.968ZM295.192 148L292.126 141H293.54L296.074 147.076L296.48 148H295.192ZM301.982 145.312L301.954 142.834L302.766 142.792C303.345 142.783 303.816 142.619 304.18 142.302C304.554 141.985 304.74 141.546 304.74 140.986C304.74 140.482 304.568 140.067 304.222 139.74C303.877 139.413 303.424 139.25 302.864 139.25C302.472 139.25 302.122 139.348 301.814 139.544C301.516 139.731 301.315 139.964 301.212 140.244L299.98 139.88C300.167 139.329 300.512 138.886 301.016 138.55C301.52 138.205 302.136 138.032 302.864 138.032C303.49 138.032 304.04 138.158 304.516 138.41C305.002 138.662 305.38 139.012 305.65 139.46C305.921 139.899 306.056 140.407 306.056 140.986C306.056 141.509 305.94 141.975 305.706 142.386C305.482 142.787 305.16 143.109 304.74 143.352C304.33 143.595 303.849 143.744 303.298 143.8V145.312H301.982ZM302.64 148.196C302.388 148.196 302.178 148.112 302.01 147.944C301.842 147.776 301.758 147.571 301.758 147.328C301.758 147.085 301.842 146.88 302.01 146.712C302.178 146.544 302.388 146.46 302.64 146.46C302.883 146.46 303.088 146.544 303.256 146.712C303.424 146.88 303.508 147.085 303.508 147.328C303.508 147.571 303.424 147.776 303.256 147.944C303.088 148.112 302.883 148.196 302.64 148.196Z" fill="#414141"/>
<rect x="28.5" y="466.5" width="329" height="37" rx="3.5" stroke="#CFCFCF"/>
<path d="M45.116 490V481.6H46.172L49.076 485.896L51.98 481.6H53.024V490H52.016V483.232L49.076 487.612L46.136 483.256V490H45.116ZM57.6164 490.144C57.0324 490.144 56.5164 490.012 56.0684 489.748C55.6204 489.476 55.2684 489.104 55.0124 488.632C54.7644 488.16 54.6404 487.616 54.6404 487C54.6404 486.384 54.7644 485.84 55.0124 485.368C55.2684 484.896 55.6164 484.528 56.0564 484.264C56.5044 483.992 57.0164 483.856 57.5924 483.856C58.1524 483.856 58.6364 483.996 59.0444 484.276C59.4524 484.548 59.7684 484.932 59.9924 485.428C60.2164 485.924 60.3284 486.508 60.3284 487.18H55.3724L55.6124 486.976C55.6124 487.456 55.6964 487.868 55.8644 488.212C56.0404 488.556 56.2844 488.82 56.5964 489.004C56.9084 489.18 57.2644 489.268 57.6644 489.268C58.0884 489.268 58.4444 489.168 58.7324 488.968C59.0284 488.768 59.2564 488.504 59.4164 488.176L60.2444 488.596C60.0924 488.908 59.8884 489.18 59.6324 489.412C59.3844 489.644 59.0884 489.824 58.7444 489.952C58.4084 490.08 58.0324 490.144 57.6164 490.144ZM55.6724 486.568L55.4204 486.376H59.5604L59.3084 486.58C59.3084 486.196 59.2324 485.864 59.0804 485.584C58.9284 485.304 58.7244 485.088 58.4684 484.936C58.2124 484.784 57.9164 484.708 57.5804 484.708C57.2524 484.708 56.9404 484.784 56.6444 484.936C56.3564 485.088 56.1204 485.304 55.9364 485.584C55.7604 485.856 55.6724 486.184 55.6724 486.568ZM63.6392 490.144C63.1992 490.144 62.8152 490.08 62.4872 489.952C62.1592 489.816 61.8832 489.64 61.6592 489.424C61.4432 489.208 61.2872 488.972 61.1912 488.716L62.0312 488.368C62.1672 488.64 62.3712 488.86 62.6432 489.028C62.9152 489.196 63.2152 489.28 63.5432 489.28C63.9192 489.28 64.2352 489.208 64.4912 489.064C64.7472 488.912 64.8752 488.7 64.8752 488.428C64.8752 488.18 64.7792 487.98 64.5872 487.828C64.4032 487.676 64.1272 487.552 63.7592 487.456L63.1832 487.3C62.6392 487.156 62.2152 486.94 61.9112 486.652C61.6072 486.356 61.4552 486.024 61.4552 485.656C61.4552 485.088 61.6392 484.648 62.0072 484.336C62.3832 484.016 62.9392 483.856 63.6752 483.856C64.0272 483.856 64.3472 483.908 64.6352 484.012C64.9232 484.116 65.1712 484.264 65.3792 484.456C65.5872 484.64 65.7392 484.86 65.8352 485.116L64.9952 485.488C64.8912 485.216 64.7192 485.02 64.4792 484.9C64.2392 484.78 63.9472 484.72 63.6032 484.72C63.2352 484.72 62.9472 484.8 62.7392 484.96C62.5312 485.112 62.4272 485.328 62.4272 485.608C62.4272 485.768 62.5112 485.92 62.6792 486.064C62.8552 486.2 63.1112 486.312 63.4472 486.4L64.0472 486.556C64.4392 486.652 64.7672 486.796 65.0312 486.988C65.2952 487.172 65.4952 487.384 65.6312 487.624C65.7672 487.864 65.8352 488.12 65.8352 488.392C65.8352 488.752 65.7392 489.064 65.5472 489.328C65.3552 489.592 65.0952 489.796 64.7672 489.94C64.4392 490.076 64.0632 490.144 63.6392 490.144ZM69.2291 490.144C68.7891 490.144 68.4051 490.08 68.0771 489.952C67.7491 489.816 67.4731 489.64 67.2491 489.424C67.0331 489.208 66.8771 488.972 66.7811 488.716L67.6211 488.368C67.7571 488.64 67.9611 488.86 68.2331 489.028C68.5051 489.196 68.8051 489.28 69.1331 489.28C69.5091 489.28 69.8251 489.208 70.0811 489.064C70.3371 488.912 70.4651 488.7 70.4651 488.428C70.4651 488.18 70.3691 487.98 70.1771 487.828C69.9931 487.676 69.7171 487.552 69.3491 487.456L68.7731 487.3C68.2291 487.156 67.8051 486.94 67.5011 486.652C67.1971 486.356 67.0451 486.024 67.0451 485.656C67.0451 485.088 67.2291 484.648 67.5971 484.336C67.9731 484.016 68.5291 483.856 69.2651 483.856C69.6171 483.856 69.9371 483.908 70.2251 484.012C70.5131 484.116 70.7611 484.264 70.9691 484.456C71.1771 484.64 71.3291 484.86 71.4251 485.116L70.5851 485.488C70.4811 485.216 70.3091 485.02 70.0691 484.9C69.8291 484.78 69.5371 484.72 69.1931 484.72C68.8251 484.72 68.5371 484.8 68.3291 484.96C68.1211 485.112 68.0171 485.328 68.0171 485.608C68.0171 485.768 68.1011 485.92 68.2691 486.064C68.4451 486.2 68.7011 486.312 69.0371 486.4L69.6371 486.556C70.0291 486.652 70.3571 486.796 70.6211 486.988C70.8851 487.172 71.0851 487.384 71.2211 487.624C71.3571 487.864 71.4251 488.12 71.4251 488.392C71.4251 488.752 71.3291 489.064 71.1371 489.328C70.9451 489.592 70.6851 489.796 70.3571 489.94C70.0291 490.076 69.6531 490.144 69.2291 490.144ZM76.4149 490L76.3669 489.016V486.832C76.3669 486.36 76.3149 485.972 76.2109 485.668C76.1069 485.356 75.9429 485.12 75.7189 484.96C75.4949 484.8 75.2029 484.72 74.8429 484.72C74.5149 484.72 74.2309 484.788 73.9909 484.924C73.7589 485.052 73.5669 485.26 73.4149 485.548L72.5509 485.212C72.7029 484.932 72.8869 484.692 73.1029 484.492C73.3189 484.284 73.5709 484.128 73.8589 484.024C74.1469 483.912 74.4749 483.856 74.8429 483.856C75.4029 483.856 75.8629 483.968 76.2229 484.192C76.5909 484.408 76.8669 484.732 77.0509 485.164C77.2349 485.588 77.3229 486.116 77.3149 486.748L77.3029 490H76.4149ZM74.6149 490.144C73.9109 490.144 73.3589 489.984 72.9589 489.664C72.5669 489.336 72.3709 488.884 72.3709 488.308C72.3709 487.7 72.5709 487.236 72.9709 486.916C73.3789 486.588 73.9469 486.424 74.6749 486.424H76.3909V487.228H74.8909C74.3309 487.228 73.9309 487.32 73.6909 487.504C73.4589 487.688 73.3429 487.952 73.3429 488.296C73.3429 488.608 73.4589 488.856 73.6909 489.04C73.9229 489.216 74.2469 489.304 74.6629 489.304C75.0069 489.304 75.3069 489.232 75.5629 489.088C75.8189 488.936 76.0149 488.724 76.1509 488.452C76.2949 488.172 76.3669 487.844 76.3669 487.468H76.7749C76.7749 488.284 76.5909 488.936 76.2229 489.424C75.8549 489.904 75.3189 490.144 74.6149 490.144ZM81.2361 492.544C80.8521 492.544 80.5001 492.504 80.1801 492.424C79.8681 492.352 79.6001 492.268 79.3761 492.172C79.1601 492.084 79.0041 492.008 78.9081 491.944L79.2681 491.164C79.3721 491.22 79.5201 491.288 79.7121 491.368C79.9041 491.456 80.1281 491.528 80.3841 491.584C80.6481 491.648 80.9281 491.68 81.2241 491.68C81.6081 491.68 81.9521 491.6 82.2561 491.44C82.5681 491.288 82.8081 491.044 82.9761 490.708C83.1521 490.38 83.2401 489.956 83.2401 489.436V484H84.2001V489.424C84.2001 490.112 84.0721 490.688 83.8161 491.152C83.5601 491.616 83.2081 491.964 82.7601 492.196C82.3121 492.428 81.8041 492.544 81.2361 492.544ZM81.2001 489.952C80.6641 489.952 80.1921 489.824 79.7841 489.568C79.3761 489.312 79.0561 488.956 78.8241 488.5C78.6001 488.036 78.4881 487.508 78.4881 486.916C78.4881 486.308 78.6001 485.776 78.8241 485.32C79.0561 484.856 79.3761 484.496 79.7841 484.24C80.1921 483.984 80.6641 483.856 81.2001 483.856C81.7041 483.856 82.1441 483.984 82.5201 484.24C82.8961 484.496 83.1881 484.856 83.3961 485.32C83.6121 485.776 83.7201 486.308 83.7201 486.916C83.7201 487.516 83.6121 488.044 83.3961 488.5C83.1881 488.956 82.8961 489.312 82.5201 489.568C82.1441 489.824 81.7041 489.952 81.2001 489.952ZM81.4281 489.124C81.7801 489.124 82.0921 489.028 82.3641 488.836C82.6361 488.644 82.8481 488.384 83.0001 488.056C83.1521 487.72 83.2281 487.332 83.2281 486.892C83.2281 486.468 83.1481 486.092 82.9881 485.764C82.8361 485.428 82.6241 485.168 82.3521 484.984C82.0881 484.792 81.7761 484.696 81.4161 484.696C81.0401 484.696 80.7041 484.792 80.4081 484.984C80.1201 485.168 79.8921 485.428 79.7241 485.764C79.5641 486.092 79.4841 486.468 79.4841 486.892C79.4841 487.332 79.5681 487.72 79.7361 488.056C79.9041 488.384 80.1321 488.644 80.4201 488.836C80.7161 489.028 81.0521 489.124 81.4281 489.124ZM88.5071 490.144C87.9231 490.144 87.4071 490.012 86.9591 489.748C86.5111 489.476 86.1591 489.104 85.9031 488.632C85.6551 488.16 85.5311 487.616 85.5311 487C85.5311 486.384 85.6551 485.84 85.9031 485.368C86.1591 484.896 86.5071 484.528 86.9471 484.264C87.3951 483.992 87.9071 483.856 88.4831 483.856C89.0431 483.856 89.5271 483.996 89.9351 484.276C90.3431 484.548 90.6591 484.932 90.8831 485.428C91.1071 485.924 91.2191 486.508 91.2191 487.18H86.2631L86.5031 486.976C86.5031 487.456 86.5871 487.868 86.7551 488.212C86.9311 488.556 87.1751 488.82 87.4871 489.004C87.7991 489.18 88.1551 489.268 88.5551 489.268C88.9791 489.268 89.3351 489.168 89.6231 488.968C89.9191 488.768 90.1471 488.504 90.3071 488.176L91.1351 488.596C90.9831 488.908 90.7791 489.18 90.5231 489.412C90.2751 489.644 89.9791 489.824 89.6351 489.952C89.2991 490.08 88.9231 490.144 88.5071 490.144ZM86.5631 486.568L86.3111 486.376H90.4511L90.1991 486.58C90.1991 486.196 90.1231 485.864 89.9711 485.584C89.8191 485.304 89.6151 485.088 89.3591 484.936C89.1031 484.784 88.8071 484.708 88.4711 484.708C88.1431 484.708 87.8311 484.784 87.5351 484.936C87.2471 485.088 87.0111 485.304 86.8271 485.584C86.6511 485.856 86.5631 486.184 86.5631 486.568Z" fill="#B8B8B8"/>
<g clip-path="url(#clip1_646_5385)">
<path d="M380.75 484.991C380.751 485.214 380.692 485.433 380.579 485.625C380.467 485.818 380.305 485.976 380.111 486.085L366.992 493.586C366.804 493.693 366.592 493.749 366.375 493.75C366.176 493.749 365.98 493.7 365.803 493.608C365.626 493.516 365.474 493.382 365.359 493.219C365.245 493.056 365.171 492.868 365.144 492.67C365.116 492.473 365.137 492.272 365.203 492.084L367.313 485.838C367.333 485.776 367.372 485.723 367.424 485.685C367.476 485.647 367.539 485.626 367.603 485.625H373.25C373.336 485.625 373.421 485.608 373.499 485.574C373.578 485.54 373.649 485.49 373.707 485.428C373.766 485.365 373.811 485.291 373.84 485.211C373.869 485.13 373.881 485.044 373.875 484.959C373.861 484.798 373.787 484.649 373.667 484.54C373.547 484.432 373.391 484.373 373.23 484.375H367.605C367.539 484.375 367.476 484.355 367.423 484.316C367.369 484.278 367.33 484.224 367.309 484.163L365.199 477.917C365.115 477.678 365.106 477.419 365.173 477.174C365.24 476.929 365.38 476.711 365.574 476.547C365.768 476.384 366.007 476.283 366.26 476.259C366.512 476.235 366.766 476.288 366.988 476.412L380.113 483.903C380.306 484.012 380.467 484.17 380.579 484.361C380.691 484.552 380.75 484.77 380.75 484.991Z" fill="#A0A0A0"/>
</g>
</g>
<defs>
<clipPath id="clip0_646_5385">
<rect width="410" height="520" rx="8" fill="white"/>
</clipPath>
<clipPath id="clip1_646_5385">
<rect width="20" height="20" fill="white" transform="translate(362 475)"/>
</clipPath>
</defs>
</svg>
