<svg width="32" height="32" viewBox="0 0 32 32" fill="none" xmlns="http://www.w3.org/2000/svg">
<path d="M25.3327 21.3334V18.6667C25.3327 14.8955 25.3327 13.0099 24.1611 11.8383C22.9895 10.6667 21.1039 10.6667 17.3327 10.6667H14.666C10.8948 10.6667 9.00916 10.6667 7.83759 11.8383C6.66602 13.0099 6.66602 14.8955 6.66602 18.6667V21.3334C6.66602 25.1046 6.66602 26.9902 7.83759 28.1618C9.00916 29.3334 10.8948 29.3334 14.666 29.3334H17.3327C21.1039 29.3334 22.9895 29.3334 24.1611 28.1618C25.3327 26.9902 25.3327 25.1046 25.3327 21.3334Z" stroke="#292929" stroke-width="1.5" stroke-linejoin="round"/>
<path d="M25.334 24C27.2196 24 28.1624 24 28.7483 23.4143C29.334 22.8284 29.334 21.8856 29.334 20C29.334 18.1144 29.334 17.1716 28.7483 16.5857C28.1624 16 27.2196 16 25.334 16" stroke="#292929" stroke-width="1.5" stroke-linejoin="round"/>
<path d="M6.66602 24C4.7804 24 3.83759 24 3.2518 23.4143C2.66602 22.8284 2.66602 21.8856 2.66602 20C2.66602 18.1144 2.66602 17.1716 3.2518 16.5857C3.83759 16 4.7804 16 6.66602 16" stroke="#292929" stroke-width="1.5" stroke-linejoin="round"/>
<path d="M18 4.66666C18 5.77124 17.1045 6.66666 16 6.66666C14.8955 6.66666 14 5.77124 14 4.66666C14 3.56209 14.8955 2.66666 16 2.66666C17.1045 2.66666 18 3.56209 18 4.66666Z" stroke="#292929" stroke-width="1.5"/>
<path d="M16 6.66666V10.6667" stroke="#292929" stroke-width="1.5" stroke-linecap="round" stroke-linejoin="round"/>
<path d="M12 17.3333V18.6667" stroke="#292929" stroke-width="1.5" stroke-linecap="round" stroke-linejoin="round"/>
<path d="M20 17.3333V18.6667" stroke="#292929" stroke-width="1.5" stroke-linecap="round" stroke-linejoin="round"/>
<path d="M13.334 23.3333C13.334 23.3333 14.2229 23.9999 16.0007 23.9999C17.7784 23.9999 18.6673 23.3333 18.6673 23.3333" stroke="#292929" stroke-width="1.5" stroke-linecap="round"/>
</svg>
