<svg width="32" height="32" viewBox="0 0 32 32" fill="none" xmlns="http://www.w3.org/2000/svg">
<path d="M16 5.33333V2.66666" stroke="#292929" stroke-width="1.5" stroke-linecap="round" stroke-linejoin="round"/>
<path d="M25.3327 29.3333C25.3327 24.1787 21.154 20 15.9993 20C10.8447 20 6.66602 24.1787 6.66602 29.3333" stroke="#292929" stroke-width="1.5" stroke-linecap="round" stroke-linejoin="round"/>
<path d="M12.666 10H12.6793M19.3193 10H19.3327" stroke="#292929" stroke-width="1.5" stroke-linecap="round" stroke-linejoin="round"/>
<path d="M7.33398 8.88881C7.33398 8.06217 7.33398 7.64884 7.42485 7.30973C7.67142 6.38949 8.39022 5.67069 9.31046 5.42412C9.64957 5.33325 10.0629 5.33325 10.8895 5.33325H21.1117C21.9384 5.33325 22.3517 5.33325 22.6908 5.42412C23.6111 5.67069 24.3299 6.38949 24.5765 7.30973C24.6673 7.64884 24.6673 8.06217 24.6673 8.88881C24.6673 10.5421 24.6673 11.3687 24.4856 12.047C23.9924 13.8874 22.5548 15.325 20.7144 15.8182C20.0361 15.9999 19.2095 15.9999 17.5563 15.9999H14.4451C12.7918 15.9999 11.9652 15.9999 11.2869 15.8182C9.44646 15.325 8.00888 13.8874 7.51572 12.047C7.33398 11.3687 7.33398 10.5421 7.33398 8.88881Z" stroke="#292929" stroke-width="1.5" stroke-linecap="round" stroke-linejoin="round"/>
</svg>
