<svg width="32" height="32" viewBox="0 0 32 32" fill="none" xmlns="http://www.w3.org/2000/svg">
<path d="M14.666 10.6667H17.3327C21.1039 10.6667 22.9895 10.6667 24.1611 11.8383C25.3327 13.0099 25.3327 14.8955 25.3327 18.6667C25.3327 22.438 25.3327 24.3236 24.1611 25.4952C22.9895 26.6668 21.1039 26.6668 17.3327 26.6668H15.9994C15.9994 26.6668 15.3327 29.3334 10.666 29.3334C10.666 29.3334 11.9994 27.9885 11.9994 26.6437C9.92808 26.5813 8.69266 26.3502 7.83759 25.4952C6.66602 24.3236 6.66602 22.438 6.66602 18.6667C6.66602 14.8955 6.66602 13.0099 7.83759 11.8383C9.00916 10.6667 10.8948 10.6667 14.666 10.6667Z" stroke="#292929" stroke-width="1.5" stroke-linejoin="round"/>
<path d="M25.334 15.3333H26.0007C27.2468 15.3333 27.8699 15.3333 28.334 15.6013C28.638 15.7767 28.8905 16.0293 29.066 16.3333C29.334 16.7974 29.334 17.4205 29.334 18.6666C29.334 19.9127 29.334 20.5358 29.066 20.9999C28.8905 21.3039 28.638 21.5565 28.334 21.7319C27.8699 21.9999 27.2468 21.9999 26.0007 21.9999H25.334" stroke="#292929" stroke-width="1.5" stroke-linejoin="round"/>
<path d="M6.66602 15.3333H5.99935C4.75319 15.3333 4.13012 15.3333 3.66602 15.6013C3.36198 15.7767 3.1095 16.0293 2.93396 16.3333C2.66602 16.7974 2.66602 17.4205 2.66602 18.6666C2.66602 19.9127 2.66602 20.5358 2.93396 20.9999C3.1095 21.3039 3.36198 21.5565 3.66602 21.7319C4.13012 21.9999 4.75319 21.9999 5.99935 21.9999H6.66602" stroke="#292929" stroke-width="1.5" stroke-linejoin="round"/>
<path d="M18 4.66667C18 5.77124 17.1045 6.66667 16 6.66667C14.8955 6.66667 14 5.77124 14 4.66667C14 3.56209 14.8955 2.66667 16 2.66667C17.1045 2.66667 18 3.56209 18 4.66667Z" stroke="#292929" stroke-width="1.5"/>
<path d="M16 6.66666V10.6667" stroke="#292929" stroke-width="1.5" stroke-linecap="round" stroke-linejoin="round"/>
<path d="M12 16V17.3333M20 16V17.3333" stroke="#292929" stroke-width="1.5" stroke-linecap="round" stroke-linejoin="round"/>
<path d="M13.334 22C13.334 22 14.2229 22.6667 16.0007 22.6667C17.7784 22.6667 18.6673 22 18.6673 22" stroke="#292929" stroke-width="1.5" stroke-linecap="round"/>
</svg>
