<svg width="32" height="32" viewBox="0 0 32 32" fill="none" xmlns="http://www.w3.org/2000/svg">
<path d="M5.33398 21.3334C5.33398 15.4423 10.1096 10.6667 16.0007 10.6667C21.8917 10.6667 26.6673 15.4423 26.6673 21.3334V24.2425C26.6673 25.2565 26.6673 25.7634 26.5759 26.1837C26.2431 27.7139 25.0479 28.9091 23.5176 29.2419C23.0973 29.3334 22.5904 29.3334 21.5764 29.3334H10.4249C9.41093 29.3334 8.90394 29.3334 8.48372 29.2419C6.9535 28.9091 5.75828 27.7139 5.4254 26.1837C5.33398 25.7634 5.33398 25.2565 5.33398 24.2425V21.3334Z" stroke="#292929" stroke-width="1.5" stroke-linecap="round" stroke-linejoin="round"/>
<path d="M16 10.6667V6.66666" stroke="#292929" stroke-width="1.5" stroke-linecap="round" stroke-linejoin="round"/>
<path d="M16 6.66666C17.1046 6.66666 18 5.77123 18 4.66666C18 3.56209 17.1046 2.66666 16 2.66666C14.8954 2.66666 14 3.56209 14 4.66666C14 5.77123 14.8954 6.66666 16 6.66666Z" stroke="#292929" stroke-width="1.5" stroke-linecap="round" stroke-linejoin="round"/>
<path d="M12 17.3333V18.6667M20 17.3333V18.6667" stroke="#292929" stroke-width="1.5" stroke-linecap="round" stroke-linejoin="round"/>
<path d="M5.33398 24.6667H10.7988C11.5497 24.6667 12.2508 24.2915 12.6673 23.6667C13.0838 23.0419 13.7851 22.6667 14.5359 22.6667H17.4655C18.2163 22.6667 18.9175 23.0419 19.334 23.6667C19.7505 24.2915 20.4517 24.6667 21.2025 24.6667H26.6673" stroke="#292929" stroke-width="1.5" stroke-linecap="round" stroke-linejoin="round"/>
</svg>
