<svg width="16" height="17" viewBox="0 0 16 17" fill="none" xmlns="http://www.w3.org/2000/svg">
<path d="M7 1.83203V3.16536M9 1.83203V3.16536M5.33333 4.83203H4M5.33333 6.83203H4M12 4.83203H10.6667M12 6.83203H10.6667M8.88887 3.16536H7.11113C6.27306 3.16536 5.85403 3.16536 5.59368 3.42571C5.33333 3.68606 5.33333 4.10509 5.33333 4.94314V6.72092C5.33333 7.55896 5.33333 7.97803 5.59368 8.23836C5.85403 8.4987 6.27306 8.4987 7.11113 8.4987H8.88887C9.72693 8.4987 10.146 8.4987 10.4063 8.23836C10.6667 7.97803 10.6667 7.55896 10.6667 6.72092V4.94314C10.6667 4.10509 10.6667 3.68606 10.4063 3.42571C10.146 3.16536 9.72693 3.16536 8.88887 3.16536Z" stroke="#111111" stroke-linecap="round" stroke-linejoin="round"/>
<path d="M2.41155 15.1172C2.53406 15.168 2.68937 15.168 3 15.168C3.31063 15.168 3.46594 15.168 3.58845 15.1172C3.75181 15.0496 3.88159 14.9198 3.94925 14.7564C4 14.6339 4 14.4786 4 14.168C4 13.8574 4 13.702 3.94925 13.5795C3.88159 13.4162 3.75181 13.2864 3.58845 13.2187C3.46594 13.168 3.31063 13.168 3 13.168C2.68937 13.168 2.53406 13.168 2.41155 13.2187C2.24819 13.2864 2.11841 13.4162 2.05075 13.5795C2 13.702 2 13.8574 2 14.168C2 14.4786 2 14.6339 2.05075 14.7564C2.11841 14.9198 2.24819 15.0496 2.41155 15.1172Z" stroke="#111111" stroke-linejoin="round"/>
<path d="M7.41153 15.1172C7.53407 15.168 7.6894 15.168 8 15.168C8.3106 15.168 8.46593 15.168 8.58847 15.1172C8.7518 15.0496 8.8816 14.9198 8.94927 14.7564C9 14.6339 9 14.4786 9 14.168C9 13.8574 9 13.702 8.94927 13.5795C8.8816 13.4162 8.7518 13.2864 8.58847 13.2187C8.46593 13.168 8.3106 13.168 8 13.168C7.6894 13.168 7.53407 13.168 7.41153 13.2187C7.2482 13.2864 7.1184 13.4162 7.05073 13.5795C7 13.702 7 13.8574 7 14.168C7 14.4786 7 14.6339 7.05073 14.7564C7.1184 14.9198 7.2482 15.0496 7.41153 15.1172Z" stroke="#111111" stroke-linejoin="round"/>
<path d="M8 13.1667V8.5" stroke="#111111" stroke-linecap="round" stroke-linejoin="round"/>
<path d="M3 13.1654C3 12.229 3 11.7609 3.22471 11.4246C3.32199 11.279 3.44699 11.154 3.59257 11.0568C3.92887 10.832 4.39703 10.832 5.33333 10.832H10.6667C11.603 10.832 12.0711 10.832 12.4074 11.0568C12.553 11.154 12.678 11.279 12.7753 11.4246C13 11.7609 13 12.229 13 13.1654" stroke="#111111" stroke-linecap="round" stroke-linejoin="round"/>
<path d="M12.4115 15.1172C12.5341 15.168 12.6894 15.168 13 15.168C13.3106 15.168 13.4659 15.168 13.5885 15.1172C13.7518 15.0496 13.8816 14.9198 13.9493 14.7564C14 14.6339 14 14.4786 14 14.168C14 13.8574 14 13.702 13.9493 13.5795C13.8816 13.4162 13.7518 13.2864 13.5885 13.2187C13.4659 13.168 13.3106 13.168 13 13.168C12.6894 13.168 12.5341 13.168 12.4115 13.2187C12.2482 13.2864 12.1184 13.4162 12.0507 13.5795C12 13.702 12 13.8574 12 14.168C12 14.4786 12 14.6339 12.0507 14.7564C12.1184 14.9198 12.2482 15.0496 12.4115 15.1172Z" stroke="#111111" stroke-linejoin="round"/>
</svg>
