<svg width="16" height="17" viewBox="0 0 16 17" fill="none" xmlns="http://www.w3.org/2000/svg">
<path d="M2.81742 15.1619V12.7954C2.81742 11.9478 2.59545 11.5072 2.15915 10.7706C1.63614 9.88756 1.33594 8.85703 1.33594 7.75643C1.33594 4.48447 3.98906 1.83203 7.26187 1.83203C10.5347 1.83203 13.1878 4.48447 13.1878 7.75643C13.1878 8.1429 13.1878 8.33616 13.2039 8.4445C13.2425 8.7035 13.3633 8.9263 13.4822 9.1569L14.6693 11.4592L13.7363 11.9255C13.4659 12.0606 13.3308 12.1282 13.2366 12.253C13.1424 12.3776 13.1159 12.5184 13.0629 12.8L13.0577 12.8274C12.9362 13.4724 12.8021 14.1844 12.4245 14.6336C12.2912 14.7922 12.1261 14.9211 11.9399 15.012C11.6324 15.1619 11.2544 15.1619 10.4984 15.1619C10.1486 15.1619 9.7978 15.17 9.44807 15.1615C8.61907 15.1413 8.0026 14.4443 8.0026 13.635" stroke="#111111" stroke-linecap="round" stroke-linejoin="round"/>
<path d="M9.5946 7.5197C9.3104 7.5197 9.0512 7.41216 8.85487 7.23523M9.5946 7.5197C9.5946 8.28363 9.152 9.00923 8.3 9.00923C7.448 9.00923 7.00547 9.73476 7.00547 10.4987M9.5946 7.5197C11.0275 7.5197 11.0275 5.28548 9.5946 5.28548C9.4644 5.28548 9.33947 5.30805 9.2234 5.34952C9.2934 3.68416 6.89254 3.23203 6.34876 4.79215M6.34876 4.79215C6.7448 5.05943 7.00547 5.51418 7.00547 6.03022M6.34876 4.79215C5.11422 3.95892 3.46849 5.4541 4.25143 6.78721C2.93744 6.98421 3.07793 9.00923 4.41627 9.00923C4.79156 9.00923 5.12334 8.82163 5.32416 8.53456" stroke="#111111" stroke-linecap="round" stroke-linejoin="round"/>
</svg>
