<svg width="16" height="17" viewBox="0 0 16 17" fill="none" xmlns="http://www.w3.org/2000/svg">
<path d="M5 8.4987H9M5 5.83203H7" stroke="#111111" stroke-linecap="round" stroke-linejoin="round"/>
<path d="M5.66406 13.832C6.36432 14.4118 7.20706 14.7812 8.17306 14.8446C8.9342 14.8945 9.7288 14.8944 10.4884 14.8446C10.7499 14.8274 11.0351 14.7658 11.2806 14.666C11.5537 14.555 11.6904 14.4995 11.7599 14.5079C11.8293 14.5163 11.93 14.5896 12.1315 14.7362C12.4867 14.9947 12.9341 15.1804 13.5977 15.1644C13.9333 15.1564 14.1011 15.1523 14.1761 15.026C14.2513 14.8996 14.1577 14.7246 13.9706 14.3748C13.7111 13.8895 13.5467 13.334 13.7959 12.8888C14.2249 12.253 14.5893 11.5001 14.6426 10.6869C14.6712 10.25 14.6712 9.79743 14.6426 9.3605C14.6071 8.81863 14.4756 8.30356 14.2649 7.83203" stroke="#111111" stroke-linecap="round" stroke-linejoin="round"/>
<path d="M8.2326 12.1566C10.603 12.0004 12.4911 10.1033 12.6465 7.72163C12.6769 7.25556 12.6769 6.7729 12.6465 6.30682C12.4911 3.92516 10.603 2.02804 8.2326 1.87193C7.42394 1.81868 6.57962 1.81878 5.7726 1.87193C3.40222 2.02804 1.5141 3.92516 1.35874 6.30682C1.32834 6.7729 1.32834 7.25556 1.35874 7.72163C1.41532 8.5891 1.80255 9.39223 2.25842 10.0704C2.52311 10.5452 2.34842 11.1378 2.07272 11.6554C1.87394 12.0286 1.77454 12.2152 1.85435 12.35C1.93415 12.4848 2.11242 12.4891 2.46894 12.4977C3.17402 12.5147 3.64946 12.3166 4.02686 12.041C4.2409 11.8846 4.34792 11.8064 4.42168 11.7974C4.49544 11.7884 4.6406 11.8476 4.93088 11.9661C5.19176 12.0726 5.49468 12.1382 5.7726 12.1566C6.57962 12.2097 7.42394 12.2098 8.2326 12.1566Z" stroke="#111111" stroke-linejoin="round"/>
</svg>
