<svg width="16" height="17" viewBox="0 0 16 17" fill="none" xmlns="http://www.w3.org/2000/svg">
<path d="M1.50277 10.9202C1.52541 10.7047 1.68155 10.531 1.99384 10.1838L2.68122 9.4153C2.84924 9.20256 2.96847 8.83203 2.96847 8.49856C2.96847 8.16536 2.8492 7.7947 2.6812 7.58203L1.99384 6.81357C1.68155 6.46628 1.52541 6.29263 1.50277 6.07715C1.48013 5.86167 1.59677 5.65925 1.83005 5.25442L2.1591 4.68335C2.40797 4.25146 2.53239 4.03552 2.74411 3.94941C2.95583 3.8633 3.19527 3.93125 3.67417 4.06714L4.48765 4.29628C4.79339 4.36678 5.11416 4.32678 5.39333 4.18335L5.61791 4.05377C5.8573 3.90044 6.04143 3.67438 6.14335 3.40865L6.36599 2.74372C6.51237 2.30372 6.58557 2.08371 6.75979 1.95787C6.93406 1.83203 7.16553 1.83203 7.62839 1.83203H8.37159C8.83453 1.83203 9.06599 1.83203 9.24019 1.95787C9.41446 2.08371 9.48766 2.30372 9.63406 2.74372L9.85666 3.40865C9.95859 3.67438 10.1427 3.90044 10.3821 4.05377L10.6067 4.18335C10.8859 4.32678 11.2067 4.36678 11.5124 4.29628L12.3259 4.06714C12.8047 3.93125 13.0442 3.8633 13.2559 3.94941C13.4677 4.03552 13.5921 4.25146 13.8409 4.68335L14.17 5.25442C14.4033 5.65925 14.5199 5.86167 14.4973 6.07715C14.4746 6.29263 14.3185 6.46628 14.0062 6.81357L13.3188 7.58203C13.1509 7.7947 13.0315 8.16536 13.0315 8.49856C13.0315 8.83203 13.1508 9.20256 13.3188 9.4153L14.0062 10.1838C14.3185 10.531 14.4746 10.7047 14.4973 10.9202C14.5199 11.1357 14.4033 11.3381 14.17 11.7429L13.8409 12.314C13.5921 12.7458 13.4677 12.9618 13.2559 13.0479C13.0442 13.134 12.8047 13.0661 12.3259 12.9302L11.5124 12.701C11.2066 12.6305 10.8858 12.6706 10.6066 12.814L10.3821 12.9436C10.1427 13.097 9.95859 13.323 9.85673 13.5887L9.63406 14.2537C9.48766 14.6937 9.41446 14.9137 9.24019 15.0395C9.06599 15.1654 8.83453 15.1654 8.37159 15.1654H7.62839C7.16553 15.1654 6.93406 15.1654 6.75979 15.0395C6.58557 14.9137 6.51237 14.6937 6.36599 14.2537" stroke="#111111" stroke-linecap="round"/>
<path d="M1.82594 13.0186C2.54594 12.2986 4.99394 9.87457 5.23394 9.59457C5.48765 9.29857 5.28194 8.89857 5.40434 7.65857C5.46357 7.05857 5.59263 6.60907 5.96194 6.27457C6.40194 5.85857 6.76197 5.85857 8.00197 5.83057C9.08197 5.85857 9.20997 5.73857 9.32197 6.01857C9.40197 6.21857 9.16197 6.33857 8.87397 6.65857C8.23397 7.29857 7.85797 7.61857 7.82197 7.81857C7.56197 8.69857 8.58597 9.21857 9.14597 8.65857C9.3577 8.44677 10.338 7.45857 10.434 7.37857C10.506 7.31457 10.6783 7.31763 10.762 7.41857C10.834 7.4893 10.842 7.49857 10.834 7.81857C10.8266 8.11477 10.8298 8.54003 10.8308 8.97857C10.8319 9.54677 10.802 10.1786 10.562 10.4986C10.082 11.2186 9.28197 11.2586 8.56197 11.2906C7.88197 11.3306 7.32197 11.2586 7.14597 11.3866C7.00197 11.4586 6.24194 12.2586 5.32194 13.1786L3.68194 14.8186C2.32194 15.8986 0.82594 14.2186 1.82594 13.0186Z" stroke="#111111" stroke-linecap="round"/>
</svg>
