<svg width="32" height="32" viewBox="0 0 32 32" fill="none" xmlns="http://www.w3.org/2000/svg">
<path d="M10 15.9974H18M10 10.6641H14" stroke="#111111" stroke-width="1.5" stroke-linecap="round" stroke-linejoin="round"/>
<path d="M11.3281 26.6641C12.7286 27.8237 14.4141 28.5625 16.3461 28.6891C17.8684 28.789 19.4576 28.7889 20.9768 28.6891C21.4999 28.6549 22.0701 28.5317 22.5612 28.3321C23.1075 28.1101 23.3808 27.999 23.5197 28.0158C23.6585 28.0326 23.86 28.1793 24.2629 28.4725C24.9733 28.9894 25.8683 29.3607 27.1955 29.3289C27.8665 29.3127 28.2021 29.3046 28.3523 29.0519C28.5025 28.7991 28.3155 28.4493 27.9412 27.7495C27.4223 26.779 27.0935 25.6679 27.5917 24.7777C28.4499 23.5061 29.1787 22.0002 29.2852 20.3738C29.3424 19.4999 29.3424 18.5949 29.2852 17.721C29.2143 16.6373 28.9512 15.6071 28.5297 14.6641" stroke="#111111" stroke-width="1.5" stroke-linecap="round" stroke-linejoin="round"/>
<path d="M16.4652 23.3131C21.206 23.0009 24.9823 19.2066 25.2929 14.4433C25.3537 13.5111 25.3537 12.5458 25.2929 11.6136C24.9823 6.85032 21.206 3.05608 16.4652 2.74386C14.8479 2.63736 13.1592 2.63757 11.5452 2.74386C6.80445 3.05608 3.02821 6.85032 2.71747 11.6136C2.65668 12.5458 2.65668 13.5111 2.71747 14.4433C2.83065 16.1782 3.6051 17.7845 4.51683 19.1409C5.04622 20.0903 4.69685 21.2755 4.14545 22.3107C3.74787 23.0571 3.54909 23.4303 3.7087 23.6999C3.8683 23.9695 4.22484 23.9782 4.93789 23.9954C6.34803 24.0294 7.29891 23.6333 8.05371 23.0819C8.48179 22.7691 8.69585 22.6127 8.84337 22.5949C8.99089 22.5769 9.28121 22.6953 9.86175 22.9322C10.3835 23.1451 10.9894 23.2765 11.5452 23.3131C13.1592 23.4194 14.8479 23.4195 16.4652 23.3131Z" stroke="#111111" stroke-width="1.5" stroke-linejoin="round"/>
</svg>
