<svg width="410" height="389" viewBox="0 0 410 389" fill="none" xmlns="http://www.w3.org/2000/svg">
<g clip-path="url(#clip0_504_3566)">
<rect x="0.5" y="0.5" width="409" height="47" fill="#A0A0A0"/>
<rect x="0.5" y="0.5" width="409" height="47" stroke="#A0A0A0"/>
<path d="M31 20H33C35.8284 20 37.2426 20 38.1213 20.8787C39 21.7574 39 23.1716 39 26C39 28.8284 39 30.2426 38.1213 31.1213C37.2426 32 35.8284 32 33 32H32C32 32 31.5 34 28 34C28 34 29 32.9913 29 31.9827C27.4466 31.9359 26.52 31.7626 25.8787 31.1213C25 30.2426 25 28.8284 25 26C25 23.1716 25 21.7574 25.8787 20.8787C26.7574 20 28.1716 20 31 20Z" stroke="#FDFDFD" stroke-width="1.5" stroke-linejoin="round"/>
<path d="M39 23.5H39.5C40.4346 23.5 40.9019 23.5 41.25 23.701C41.478 23.8326 41.6674 24.022 41.799 24.25C42 24.5981 42 25.0654 42 26C42 26.9346 42 27.4019 41.799 27.75C41.6674 27.978 41.478 28.1674 41.25 28.299C40.9019 28.5 40.4346 28.5 39.5 28.5H39" stroke="#FDFDFD" stroke-width="1.5" stroke-linejoin="round"/>
<path d="M25 23.5H24.5C23.5654 23.5 23.0981 23.5 22.75 23.701C22.522 23.8326 22.3326 24.022 22.201 24.25C22 24.5981 22 25.0654 22 26C22 26.9346 22 27.4019 22.201 27.75C22.3326 27.978 22.522 28.1674 22.75 28.299C23.0981 28.5 23.5654 28.5 24.5 28.5H25" stroke="#FDFDFD" stroke-width="1.5" stroke-linejoin="round"/>
<path d="M33.5 15.5C33.5 16.3284 32.8284 17 32 17C31.1716 17 30.5 16.3284 30.5 15.5C30.5 14.6716 31.1716 14 32 14C32.8284 14 33.5 14.6716 33.5 15.5Z" stroke="#FDFDFD" stroke-width="1.5"/>
<path d="M32 17V20" stroke="#FDFDFD" stroke-width="1.5" stroke-linecap="round" stroke-linejoin="round"/>
<path d="M29 24V25M35 24V25" stroke="#FDFDFD" stroke-width="1.5" stroke-linecap="round" stroke-linejoin="round"/>
<path d="M30 28.5C30 28.5 30.6667 29 32 29C33.3333 29 34 28.5 34 28.5" stroke="#FDFDFD" stroke-width="1.5" stroke-linecap="round"/>
<path d="M72.802 24.926L71.78 24.436L74.972 19.2H76.33L72.802 24.926ZM71.64 29V24.296H72.816V29H71.64ZM71.654 24.926L68.126 19.2H69.498L72.676 24.436L71.654 24.926ZM79.6892 29.168C79.0079 29.168 78.4012 29.014 77.8692 28.706C77.3466 28.3887 76.9359 27.9547 76.6372 27.404C76.3386 26.8533 76.1892 26.2187 76.1892 25.5C76.1892 24.7813 76.3339 24.1467 76.6232 23.596C76.9219 23.0453 77.3326 22.616 77.8552 22.308C78.3872 21.9907 78.9892 21.832 79.6612 21.832C80.3519 21.832 80.9586 21.9907 81.4812 22.308C82.0132 22.616 82.4239 23.0453 82.7132 23.596C83.0119 24.1467 83.1612 24.7813 83.1612 25.5C83.1612 26.2187 83.0119 26.8533 82.7132 27.404C82.4239 27.9547 82.0179 28.3887 81.4952 28.706C80.9726 29.014 80.3706 29.168 79.6892 29.168ZM79.6892 28.132C80.1559 28.132 80.5619 28.02 80.9072 27.796C81.2526 27.572 81.5232 27.264 81.7192 26.872C81.9246 26.48 82.0272 26.0227 82.0272 25.5C82.0272 24.9773 81.9246 24.52 81.7192 24.128C81.5232 23.736 81.2479 23.428 80.8932 23.204C80.5386 22.98 80.1279 22.868 79.6612 22.868C79.2039 22.868 78.7979 22.98 78.4432 23.204C78.0979 23.428 77.8226 23.736 77.6172 24.128C77.4212 24.52 77.3232 24.9773 77.3232 25.5C77.3232 26.0133 77.4212 26.4707 77.6172 26.872C77.8226 27.264 78.1026 27.572 78.4572 27.796C78.8212 28.02 79.2319 28.132 79.6892 28.132ZM89.5183 29L89.4483 27.712V22H90.5683V29H89.5183ZM84.5343 25.584V22H85.6543V25.584H84.5343ZM85.6543 25.584C85.6543 26.2747 85.7337 26.802 85.8923 27.166C86.051 27.53 86.2703 27.782 86.5503 27.922C86.8397 28.0527 87.1617 28.118 87.5163 28.118C88.123 28.118 88.5943 27.8987 88.9303 27.46C89.2757 27.0213 89.4483 26.41 89.4483 25.626H89.9943C89.9943 26.3633 89.887 26.998 89.6723 27.53C89.4577 28.062 89.145 28.468 88.7343 28.748C88.333 29.028 87.8383 29.168 87.2503 29.168C86.709 29.168 86.233 29.0607 85.8223 28.846C85.4117 28.622 85.0943 28.272 84.8703 27.796C84.6463 27.3107 84.5343 26.6853 84.5343 25.92V25.584H85.6543ZM93.139 25.206C93.139 24.45 93.2836 23.8387 93.573 23.372C93.8623 22.896 94.231 22.546 94.679 22.322C95.1363 22.0887 95.617 21.972 96.121 21.972V23.022C95.7103 23.022 95.3136 23.092 94.931 23.232C94.5576 23.3627 94.2496 23.582 94.007 23.89C93.7643 24.198 93.643 24.618 93.643 25.15L93.139 25.206ZM92.523 29V22H93.643V29H92.523ZM107.824 29L103.89 19.2H105.08L109.07 29H107.824ZM99.8584 29L103.848 19.2H105.052L101.118 29H99.8584ZM101.748 26.214V25.15H107.194V26.214H101.748ZM110.509 29V19.2H111.699V29H110.509ZM121.759 29L121.703 27.852V25.304C121.703 24.7533 121.642 24.3007 121.521 23.946C121.399 23.582 121.208 23.3067 120.947 23.12C120.685 22.9333 120.345 22.84 119.925 22.84C119.542 22.84 119.211 22.9193 118.931 23.078C118.66 23.2273 118.436 23.47 118.259 23.806L117.251 23.414C117.428 23.0873 117.643 22.8073 117.895 22.574C118.147 22.3313 118.441 22.1493 118.777 22.028C119.113 21.8973 119.495 21.832 119.925 21.832C120.578 21.832 121.115 21.9627 121.535 22.224C121.964 22.476 122.286 22.854 122.501 23.358C122.715 23.8527 122.818 24.4687 122.809 25.206L122.795 29H121.759ZM119.659 29.168C118.837 29.168 118.193 28.9813 117.727 28.608C117.269 28.2253 117.041 27.698 117.041 27.026C117.041 26.3167 117.274 25.7753 117.741 25.402C118.217 25.0193 118.879 24.828 119.729 24.828H121.731V25.766H119.981C119.327 25.766 118.861 25.8733 118.581 26.088C118.31 26.3027 118.175 26.6107 118.175 27.012C118.175 27.376 118.31 27.6653 118.581 27.88C118.851 28.0853 119.229 28.188 119.715 28.188C120.116 28.188 120.466 28.104 120.765 27.936C121.063 27.7587 121.292 27.5113 121.451 27.194C121.619 26.8673 121.703 26.4847 121.703 26.046H122.179C122.179 26.998 121.964 27.7587 121.535 28.328C121.105 28.888 120.48 29.168 119.659 29.168ZM127.384 31.968C126.936 31.968 126.525 31.9213 126.152 31.828C125.788 31.744 125.475 31.646 125.214 31.534C124.962 31.4313 124.78 31.3427 124.668 31.268L125.088 30.358C125.209 30.4233 125.382 30.5027 125.606 30.596C125.83 30.6987 126.091 30.7827 126.39 30.848C126.698 30.9227 127.024 30.96 127.37 30.96C127.818 30.96 128.219 30.8667 128.574 30.68C128.938 30.5027 129.218 30.218 129.414 29.826C129.619 29.4433 129.722 28.9487 129.722 28.342V22H130.842V28.328C130.842 29.1307 130.692 29.8027 130.394 30.344C130.095 30.8853 129.684 31.2913 129.162 31.562C128.639 31.8327 128.046 31.968 127.384 31.968ZM127.342 28.944C126.716 28.944 126.166 28.7947 125.69 28.496C125.214 28.1973 124.84 27.782 124.57 27.25C124.308 26.7087 124.178 26.0927 124.178 25.402C124.178 24.6927 124.308 24.072 124.57 23.54C124.84 22.9987 125.214 22.5787 125.69 22.28C126.166 21.9813 126.716 21.832 127.342 21.832C127.93 21.832 128.443 21.9813 128.882 22.28C129.32 22.5787 129.661 22.9987 129.904 23.54C130.156 24.072 130.282 24.6927 130.282 25.402C130.282 26.102 130.156 26.718 129.904 27.25C129.661 27.782 129.32 28.1973 128.882 28.496C128.443 28.7947 127.93 28.944 127.342 28.944ZM127.608 27.978C128.018 27.978 128.382 27.866 128.7 27.642C129.017 27.418 129.264 27.1147 129.442 26.732C129.619 26.34 129.708 25.8873 129.708 25.374C129.708 24.8793 129.614 24.4407 129.428 24.058C129.25 23.666 129.003 23.3627 128.686 23.148C128.378 22.924 128.014 22.812 127.594 22.812C127.155 22.812 126.763 22.924 126.418 23.148C126.082 23.3627 125.816 23.666 125.62 24.058C125.433 24.4407 125.34 24.8793 125.34 25.374C125.34 25.8873 125.438 26.34 125.634 26.732C125.83 27.1147 126.096 27.418 126.432 27.642C126.777 27.866 127.169 27.978 127.608 27.978ZM135.866 29.168C135.185 29.168 134.583 29.014 134.06 28.706C133.538 28.3887 133.127 27.9547 132.828 27.404C132.539 26.8533 132.394 26.2187 132.394 25.5C132.394 24.7813 132.539 24.1467 132.828 23.596C133.127 23.0453 133.533 22.616 134.046 22.308C134.569 21.9907 135.166 21.832 135.838 21.832C136.492 21.832 137.056 21.9953 137.532 22.322C138.008 22.6393 138.377 23.0873 138.638 23.666C138.9 24.2447 139.03 24.926 139.03 25.71H133.248L133.528 25.472C133.528 26.032 133.626 26.5127 133.822 26.914C134.028 27.3153 134.312 27.6233 134.676 27.838C135.04 28.0433 135.456 28.146 135.922 28.146C136.417 28.146 136.832 28.0293 137.168 27.796C137.514 27.5627 137.78 27.2547 137.966 26.872L138.932 27.362C138.755 27.726 138.517 28.0433 138.218 28.314C137.929 28.5847 137.584 28.7947 137.182 28.944C136.79 29.0933 136.352 29.168 135.866 29.168ZM133.598 24.996L133.304 24.772H138.134L137.84 25.01C137.84 24.562 137.752 24.1747 137.574 23.848C137.397 23.5213 137.159 23.2693 136.86 23.092C136.562 22.9147 136.216 22.826 135.824 22.826C135.442 22.826 135.078 22.9147 134.732 23.092C134.396 23.2693 134.121 23.5213 133.906 23.848C133.701 24.1653 133.598 24.548 133.598 24.996ZM140.443 29V22H141.493L141.563 23.288V29H140.443ZM145.357 29V25.416H146.477V29H145.357ZM145.357 25.416C145.357 24.7253 145.278 24.198 145.119 23.834C144.96 23.47 144.741 23.2227 144.461 23.092C144.181 22.952 143.864 22.882 143.509 22.882C142.893 22.882 142.412 23.1013 142.067 23.54C141.731 23.9693 141.563 24.5807 141.563 25.374H141.017C141.017 24.6367 141.124 24.002 141.339 23.47C141.554 22.938 141.866 22.532 142.277 22.252C142.688 21.972 143.182 21.832 143.761 21.832C144.312 21.832 144.788 21.944 145.189 22.168C145.6 22.3827 145.917 22.728 146.141 23.204C146.374 23.68 146.486 24.3053 146.477 25.08V25.416H145.357ZM150.882 29.168C150.2 29.168 149.673 28.9907 149.3 28.636C148.926 28.2813 148.74 27.782 148.74 27.138V19.816H149.86V27.026C149.86 27.3807 149.953 27.656 150.14 27.852C150.336 28.0387 150.606 28.132 150.952 28.132C151.064 28.132 151.171 28.118 151.274 28.09C151.386 28.0527 151.53 27.9687 151.708 27.838L152.142 28.748C151.899 28.9067 151.68 29.014 151.484 29.07C151.288 29.1353 151.087 29.168 150.882 29.168ZM147.522 22.994V22H151.96V22.994H147.522Z" fill="#FDFDFD"/>
<rect width="410" height="341" transform="translate(0 48)" fill="white"/>
<path d="M202.834 89.3333H207.167C213.296 89.3333 216.36 89.3333 218.263 91.2371C220.167 93.1409 220.167 96.2051 220.167 102.333C220.167 108.461 220.167 111.526 218.263 113.429C216.36 115.333 213.296 115.333 207.167 115.333H205.001C205.001 115.333 203.917 119.667 196.334 119.667C196.334 119.667 198.501 117.481 198.501 115.296C195.135 115.194 193.127 114.819 191.738 113.429C189.834 111.526 189.834 108.461 189.834 102.333C189.834 96.2051 189.834 93.1409 191.738 91.2371C193.642 89.3333 196.706 89.3333 202.834 89.3333Z" stroke="#292929" stroke-width="2" stroke-linejoin="round"/>
<path d="M220.166 96.9167H221.249C223.274 96.9167 224.287 96.9167 225.041 97.3522C225.535 97.6374 225.945 98.0477 226.231 98.5417C226.666 99.296 226.666 100.308 226.666 102.333C226.666 104.358 226.666 105.371 226.231 106.125C225.945 106.619 225.535 107.029 225.041 107.315C224.287 107.75 223.274 107.75 221.249 107.75H220.166" stroke="#292929" stroke-width="2" stroke-linejoin="round"/>
<path d="M189.834 96.9167H188.751C186.726 96.9167 185.713 96.9167 184.959 97.3522C184.465 97.6374 184.055 98.0477 183.769 98.5417C183.334 99.296 183.334 100.308 183.334 102.333C183.334 104.358 183.334 105.371 183.769 106.125C184.055 106.619 184.465 107.029 184.959 107.315C185.713 107.75 186.726 107.75 188.751 107.75H189.834" stroke="#292929" stroke-width="2" stroke-linejoin="round"/>
<path d="M208.25 79.5833C208.25 81.3783 206.795 82.8333 205 82.8333C203.205 82.8333 201.75 81.3783 201.75 79.5833C201.75 77.7884 203.205 76.3333 205 76.3333C206.795 76.3333 208.25 77.7884 208.25 79.5833Z" stroke="#292929" stroke-width="2"/>
<path d="M205 82.8333V89.3333" stroke="#292929" stroke-width="2" stroke-linecap="round" stroke-linejoin="round"/>
<path d="M198.5 98V100.167M211.5 98V100.167" stroke="#292929" stroke-width="2" stroke-linecap="round" stroke-linejoin="round"/>
<path d="M200.666 107.75C200.666 107.75 202.111 108.833 204.999 108.833C207.888 108.833 209.333 107.75 209.333 107.75" stroke="#292929" stroke-width="2" stroke-linecap="round"/>
<path d="M121.036 148V138.2H122.212V148H121.036ZM114.302 148V138.2H115.492V148H114.302ZM115.352 143.492V142.414H121.288V143.492H115.352ZM124.564 148V141H125.684V148H124.564ZM125.138 139.376C124.951 139.376 124.788 139.306 124.648 139.166C124.508 139.026 124.438 138.863 124.438 138.676C124.438 138.48 124.508 138.317 124.648 138.186C124.788 138.046 124.951 137.976 125.138 137.976C125.334 137.976 125.497 138.046 125.628 138.186C125.768 138.317 125.838 138.48 125.838 138.676C125.838 138.863 125.768 139.026 125.628 139.166C125.497 139.306 125.334 139.376 125.138 139.376ZM127.328 149.61L128.126 146.656H129.386L128.294 149.61H127.328ZM134.365 148V138.2H135.485V148H134.365ZM139.293 148V144.416H140.413V148H139.293ZM139.293 144.416C139.293 143.725 139.209 143.198 139.041 142.834C138.882 142.47 138.663 142.223 138.383 142.092C138.103 141.952 137.785 141.882 137.431 141.882C136.815 141.882 136.334 142.101 135.989 142.54C135.653 142.969 135.485 143.581 135.485 144.374H134.939C134.939 143.637 135.046 143.002 135.261 142.47C135.485 141.938 135.802 141.532 136.213 141.252C136.623 140.972 137.118 140.832 137.697 140.832C138.238 140.832 138.714 140.944 139.125 141.168C139.535 141.383 139.853 141.728 140.077 142.204C140.31 142.68 140.422 143.305 140.413 144.08V144.416H139.293ZM145.265 148.168C144.584 148.168 143.977 148.014 143.445 147.706C142.923 147.389 142.512 146.955 142.213 146.404C141.915 145.853 141.765 145.219 141.765 144.5C141.765 143.781 141.91 143.147 142.199 142.596C142.498 142.045 142.909 141.616 143.431 141.308C143.963 140.991 144.565 140.832 145.237 140.832C145.928 140.832 146.535 140.991 147.057 141.308C147.589 141.616 148 142.045 148.289 142.596C148.588 143.147 148.737 143.781 148.737 144.5C148.737 145.219 148.588 145.853 148.289 146.404C148 146.955 147.594 147.389 147.071 147.706C146.549 148.014 145.947 148.168 145.265 148.168ZM145.265 147.132C145.732 147.132 146.138 147.02 146.483 146.796C146.829 146.572 147.099 146.264 147.295 145.872C147.501 145.48 147.603 145.023 147.603 144.5C147.603 143.977 147.501 143.52 147.295 143.128C147.099 142.736 146.824 142.428 146.469 142.204C146.115 141.98 145.704 141.868 145.237 141.868C144.78 141.868 144.374 141.98 144.019 142.204C143.674 142.428 143.399 142.736 143.193 143.128C142.997 143.52 142.899 143.977 142.899 144.5C142.899 145.013 142.997 145.471 143.193 145.872C143.399 146.264 143.679 146.572 144.033 146.796C144.397 147.02 144.808 147.132 145.265 147.132ZM156.471 148L158.837 141H159.971L157.591 148H156.471ZM151.711 148L154.077 141H155.127L152.789 148H151.711ZM151.655 148L149.275 141H150.409L152.747 148H151.655ZM156.471 148L154.133 141H155.197L157.535 148H156.471ZM167.674 148.168C166.984 148.168 166.372 148.014 165.84 147.706C165.308 147.389 164.893 146.955 164.594 146.404C164.296 145.853 164.146 145.219 164.146 144.5C164.146 143.781 164.291 143.147 164.58 142.596C164.879 142.045 165.294 141.616 165.826 141.308C166.358 140.991 166.965 140.832 167.646 140.832C168.318 140.832 168.92 140.986 169.452 141.294C169.984 141.602 170.39 142.036 170.67 142.596L169.648 143.058C169.462 142.685 169.191 142.395 168.836 142.19C168.482 141.975 168.076 141.868 167.618 141.868C167.161 141.868 166.755 141.98 166.4 142.204C166.055 142.428 165.78 142.741 165.574 143.142C165.378 143.534 165.28 143.987 165.28 144.5C165.28 145.013 165.378 145.471 165.574 145.872C165.78 146.264 166.06 146.572 166.414 146.796C166.778 147.02 167.189 147.132 167.646 147.132C168.104 147.132 168.51 147.015 168.864 146.782C169.228 146.549 169.504 146.222 169.69 145.802L170.712 146.264C170.432 146.861 170.026 147.328 169.494 147.664C168.962 148 168.356 148.168 167.674 148.168ZM176.438 148L176.382 146.852V144.304C176.382 143.753 176.322 143.301 176.2 142.946C176.079 142.582 175.888 142.307 175.626 142.12C175.365 141.933 175.024 141.84 174.604 141.84C174.222 141.84 173.89 141.919 173.61 142.078C173.34 142.227 173.116 142.47 172.938 142.806L171.93 142.414C172.108 142.087 172.322 141.807 172.574 141.574C172.826 141.331 173.12 141.149 173.456 141.028C173.792 140.897 174.175 140.832 174.604 140.832C175.258 140.832 175.794 140.963 176.214 141.224C176.644 141.476 176.966 141.854 177.18 142.358C177.395 142.853 177.498 143.469 177.488 144.206L177.474 148H176.438ZM174.338 148.168C173.517 148.168 172.873 147.981 172.406 147.608C171.949 147.225 171.72 146.698 171.72 146.026C171.72 145.317 171.954 144.775 172.42 144.402C172.896 144.019 173.559 143.828 174.408 143.828H176.41V144.766H174.66C174.007 144.766 173.54 144.873 173.26 145.088C172.99 145.303 172.854 145.611 172.854 146.012C172.854 146.376 172.99 146.665 173.26 146.88C173.531 147.085 173.909 147.188 174.394 147.188C174.796 147.188 175.146 147.104 175.444 146.936C175.743 146.759 175.972 146.511 176.13 146.194C176.298 145.867 176.382 145.485 176.382 145.046H176.858C176.858 145.998 176.644 146.759 176.214 147.328C175.785 147.888 175.16 148.168 174.338 148.168ZM179.263 148V141H180.313L180.383 142.288V148H179.263ZM184.177 148V144.416H185.297V148H184.177ZM184.177 144.416C184.177 143.725 184.098 143.198 183.939 142.834C183.781 142.47 183.561 142.223 183.281 142.092C183.001 141.952 182.684 141.882 182.329 141.882C181.713 141.882 181.233 142.101 180.887 142.54C180.551 142.969 180.383 143.581 180.383 144.374H179.837C179.837 143.637 179.945 143.002 180.159 142.47C180.374 141.938 180.687 141.532 181.097 141.252C181.508 140.972 182.003 140.832 182.581 140.832C183.132 140.832 183.608 140.944 184.009 141.168C184.42 141.383 184.737 141.728 184.961 142.204C185.195 142.68 185.307 143.305 185.297 144.08V144.416H184.177ZM190.851 148V138.2H192.041V148H190.851ZM197.789 148V138.2H198.909V148H197.789ZM202.717 148V144.416H203.837V148H202.717ZM202.717 144.416C202.717 143.725 202.633 143.198 202.465 142.834C202.306 142.47 202.087 142.223 201.807 142.092C201.527 141.952 201.209 141.882 200.855 141.882C200.239 141.882 199.758 142.101 199.413 142.54C199.077 142.969 198.909 143.581 198.909 144.374H198.363C198.363 143.637 198.47 143.002 198.685 142.47C198.909 141.938 199.226 141.532 199.637 141.252C200.047 140.972 200.542 140.832 201.121 140.832C201.662 140.832 202.138 140.944 202.549 141.168C202.959 141.383 203.277 141.728 203.501 142.204C203.734 142.68 203.846 143.305 203.837 144.08V144.416H202.717ZM208.661 148.168C207.98 148.168 207.378 148.014 206.855 147.706C206.333 147.389 205.922 146.955 205.623 146.404C205.334 145.853 205.189 145.219 205.189 144.5C205.189 143.781 205.334 143.147 205.623 142.596C205.922 142.045 206.328 141.616 206.841 141.308C207.364 140.991 207.961 140.832 208.633 140.832C209.287 140.832 209.851 140.995 210.327 141.322C210.803 141.639 211.172 142.087 211.433 142.666C211.695 143.245 211.825 143.926 211.825 144.71H206.043L206.323 144.472C206.323 145.032 206.421 145.513 206.617 145.914C206.823 146.315 207.107 146.623 207.471 146.838C207.835 147.043 208.251 147.146 208.717 147.146C209.212 147.146 209.627 147.029 209.963 146.796C210.309 146.563 210.575 146.255 210.761 145.872L211.727 146.362C211.55 146.726 211.312 147.043 211.013 147.314C210.724 147.585 210.379 147.795 209.977 147.944C209.585 148.093 209.147 148.168 208.661 148.168ZM206.393 143.996L206.099 143.772H210.929L210.635 144.01C210.635 143.562 210.547 143.175 210.369 142.848C210.192 142.521 209.954 142.269 209.655 142.092C209.357 141.915 209.011 141.826 208.619 141.826C208.237 141.826 207.873 141.915 207.527 142.092C207.191 142.269 206.916 142.521 206.701 142.848C206.496 143.165 206.393 143.548 206.393 143.996ZM213.238 148V138.2H214.358V148H213.238ZM216.384 150.8V141H217.434L217.504 142.288V150.8H216.384ZM219.87 148.168C219.282 148.168 218.764 148.014 218.316 147.706C217.877 147.398 217.537 146.969 217.294 146.418C217.051 145.858 216.93 145.219 216.93 144.5C216.93 143.772 217.051 143.133 217.294 142.582C217.537 142.031 217.877 141.602 218.316 141.294C218.764 140.986 219.282 140.832 219.87 140.832C220.495 140.832 221.046 140.986 221.522 141.294C221.998 141.602 222.367 142.031 222.628 142.582C222.899 143.133 223.034 143.772 223.034 144.5C223.034 145.219 222.899 145.858 222.628 146.418C222.367 146.969 221.998 147.398 221.522 147.706C221.046 148.014 220.495 148.168 219.87 148.168ZM219.618 147.146C220.057 147.146 220.444 147.034 220.78 146.81C221.125 146.586 221.396 146.273 221.592 145.872C221.797 145.471 221.9 145.013 221.9 144.5C221.9 143.987 221.802 143.529 221.606 143.128C221.419 142.727 221.153 142.414 220.808 142.19C220.463 141.966 220.071 141.854 219.632 141.854C219.221 141.854 218.853 141.966 218.526 142.19C218.209 142.414 217.957 142.727 217.77 143.128C217.593 143.529 217.504 143.987 217.504 144.5C217.504 145.013 217.593 145.471 217.77 145.872C217.957 146.273 218.209 146.586 218.526 146.81C218.843 147.034 219.207 147.146 219.618 147.146ZM228.674 150.968C228.497 150.968 228.292 150.931 228.058 150.856C227.825 150.791 227.578 150.702 227.316 150.59L227.736 149.652C227.951 149.745 228.138 149.815 228.296 149.862C228.464 149.909 228.595 149.932 228.688 149.932C228.94 149.932 229.146 149.862 229.304 149.722C229.472 149.591 229.612 149.4 229.724 149.148L230.522 147.244L233.112 141H234.316L230.956 148.98C230.779 149.391 230.592 149.745 230.396 150.044C230.21 150.343 229.981 150.571 229.71 150.73C229.44 150.889 229.094 150.968 228.674 150.968ZM230.214 148L227.19 141H228.38L230.984 147.23L231.32 148H230.214ZM238.344 148.168C237.662 148.168 237.056 148.014 236.524 147.706C236.001 147.389 235.59 146.955 235.292 146.404C234.993 145.853 234.844 145.219 234.844 144.5C234.844 143.781 234.988 143.147 235.278 142.596C235.576 142.045 235.987 141.616 236.51 141.308C237.042 140.991 237.644 140.832 238.316 140.832C239.006 140.832 239.613 140.991 240.136 141.308C240.668 141.616 241.078 142.045 241.368 142.596C241.666 143.147 241.816 143.781 241.816 144.5C241.816 145.219 241.666 145.853 241.368 146.404C241.078 146.955 240.672 147.389 240.15 147.706C239.627 148.014 239.025 148.168 238.344 148.168ZM238.344 147.132C238.81 147.132 239.216 147.02 239.562 146.796C239.907 146.572 240.178 146.264 240.374 145.872C240.579 145.48 240.682 145.023 240.682 144.5C240.682 143.977 240.579 143.52 240.374 143.128C240.178 142.736 239.902 142.428 239.548 142.204C239.193 141.98 238.782 141.868 238.316 141.868C237.858 141.868 237.452 141.98 237.098 142.204C236.752 142.428 236.477 142.736 236.272 143.128C236.076 143.52 235.978 143.977 235.978 144.5C235.978 145.013 236.076 145.471 236.272 145.872C236.477 146.264 236.757 146.572 237.112 146.796C237.476 147.02 237.886 147.132 238.344 147.132ZM248.173 148L248.103 146.712V141H249.223V148H248.173ZM243.189 144.584V141H244.309V144.584H243.189ZM244.309 144.584C244.309 145.275 244.388 145.802 244.547 146.166C244.705 146.53 244.925 146.782 245.205 146.922C245.494 147.053 245.816 147.118 246.171 147.118C246.777 147.118 247.249 146.899 247.585 146.46C247.93 146.021 248.103 145.41 248.103 144.626H248.649C248.649 145.363 248.541 145.998 248.327 146.53C248.112 147.062 247.799 147.468 247.389 147.748C246.987 148.028 246.493 148.168 245.905 148.168C245.363 148.168 244.887 148.061 244.477 147.846C244.066 147.622 243.749 147.272 243.525 146.796C243.301 146.311 243.189 145.685 243.189 144.92V144.584H244.309ZM257.268 148.168C256.587 148.168 256.06 147.991 255.686 147.636C255.313 147.281 255.126 146.782 255.126 146.138V138.816H256.246V146.026C256.246 146.381 256.34 146.656 256.526 146.852C256.722 147.039 256.993 147.132 257.338 147.132C257.45 147.132 257.558 147.118 257.66 147.09C257.772 147.053 257.917 146.969 258.094 146.838L258.528 147.748C258.286 147.907 258.066 148.014 257.87 148.07C257.674 148.135 257.474 148.168 257.268 148.168ZM253.908 141.994V141H258.346V141.994H253.908ZM262.98 148.168C262.299 148.168 261.692 148.014 261.16 147.706C260.638 147.389 260.227 146.955 259.928 146.404C259.63 145.853 259.48 145.219 259.48 144.5C259.48 143.781 259.625 143.147 259.914 142.596C260.213 142.045 260.624 141.616 261.146 141.308C261.678 140.991 262.28 140.832 262.952 140.832C263.643 140.832 264.25 140.991 264.772 141.308C265.304 141.616 265.715 142.045 266.004 142.596C266.303 143.147 266.452 143.781 266.452 144.5C266.452 145.219 266.303 145.853 266.004 146.404C265.715 146.955 265.309 147.389 264.786 147.706C264.264 148.014 263.662 148.168 262.98 148.168ZM262.98 147.132C263.447 147.132 263.853 147.02 264.198 146.796C264.544 146.572 264.814 146.264 265.01 145.872C265.216 145.48 265.318 145.023 265.318 144.5C265.318 143.977 265.216 143.52 265.01 143.128C264.814 142.736 264.539 142.428 264.184 142.204C263.83 141.98 263.419 141.868 262.952 141.868C262.495 141.868 262.089 141.98 261.734 142.204C261.389 142.428 261.114 142.736 260.908 143.128C260.712 143.52 260.614 143.977 260.614 144.5C260.614 145.013 260.712 145.471 260.908 145.872C261.114 146.264 261.394 146.572 261.748 146.796C262.112 147.02 262.523 147.132 262.98 147.132ZM273.187 148L273.131 146.698V138.2H274.251V148H273.187ZM270.765 148.168C270.14 148.168 269.589 148.014 269.113 147.706C268.637 147.398 268.264 146.969 267.993 146.418C267.732 145.858 267.601 145.219 267.601 144.5C267.601 143.772 267.732 143.133 267.993 142.582C268.264 142.031 268.637 141.602 269.113 141.294C269.589 140.986 270.14 140.832 270.765 140.832C271.353 140.832 271.867 140.986 272.305 141.294C272.753 141.602 273.099 142.031 273.341 142.582C273.584 143.133 273.705 143.772 273.705 144.5C273.705 145.219 273.584 145.858 273.341 146.418C273.099 146.969 272.753 147.398 272.305 147.706C271.867 148.014 271.353 148.168 270.765 148.168ZM271.017 147.146C271.428 147.146 271.792 147.034 272.109 146.81C272.427 146.586 272.674 146.273 272.851 145.872C273.038 145.471 273.131 145.013 273.131 144.5C273.131 143.987 273.038 143.529 272.851 143.128C272.674 142.727 272.427 142.414 272.109 142.19C271.792 141.966 271.423 141.854 271.003 141.854C270.565 141.854 270.173 141.966 269.827 142.19C269.491 142.414 269.225 142.727 269.029 143.128C268.833 143.529 268.735 143.987 268.735 144.5C268.735 145.013 268.833 145.471 269.029 145.872C269.225 146.273 269.496 146.586 269.841 146.81C270.187 147.034 270.579 147.146 271.017 147.146ZM280.522 148L280.466 146.852V144.304C280.466 143.753 280.406 143.301 280.284 142.946C280.163 142.582 279.972 142.307 279.71 142.12C279.449 141.933 279.108 141.84 278.688 141.84C278.306 141.84 277.974 141.919 277.694 142.078C277.424 142.227 277.2 142.47 277.022 142.806L276.014 142.414C276.192 142.087 276.406 141.807 276.658 141.574C276.91 141.331 277.204 141.149 277.54 141.028C277.876 140.897 278.259 140.832 278.688 140.832C279.342 140.832 279.878 140.963 280.298 141.224C280.728 141.476 281.05 141.854 281.264 142.358C281.479 142.853 281.582 143.469 281.572 144.206L281.558 148H280.522ZM278.422 148.168C277.601 148.168 276.957 147.981 276.49 147.608C276.033 147.225 275.804 146.698 275.804 146.026C275.804 145.317 276.038 144.775 276.504 144.402C276.98 144.019 277.643 143.828 278.492 143.828H280.494V144.766H278.744C278.091 144.766 277.624 144.873 277.344 145.088C277.074 145.303 276.938 145.611 276.938 146.012C276.938 146.376 277.074 146.665 277.344 146.88C277.615 147.085 277.993 147.188 278.478 147.188C278.88 147.188 279.23 147.104 279.528 146.936C279.827 146.759 280.056 146.511 280.214 146.194C280.382 145.867 280.466 145.485 280.466 145.046H280.942C280.942 145.998 280.728 146.759 280.298 147.328C279.869 147.888 279.244 148.168 278.422 148.168ZM283.868 150.968C283.69 150.968 283.485 150.931 283.252 150.856C283.018 150.791 282.771 150.702 282.51 150.59L282.93 149.652C283.144 149.745 283.331 149.815 283.49 149.862C283.658 149.909 283.788 149.932 283.882 149.932C284.134 149.932 284.339 149.862 284.498 149.722C284.666 149.591 284.806 149.4 284.918 149.148L285.716 147.244L288.306 141H289.51L286.15 148.98C285.972 149.391 285.786 149.745 285.59 150.044C285.403 150.343 285.174 150.571 284.904 150.73C284.633 150.889 284.288 150.968 283.868 150.968ZM285.408 148L282.384 141H283.574L286.178 147.23L286.514 148H285.408ZM292.077 145.368L292.063 142.876L292.791 142.848C293.407 142.839 293.911 142.666 294.303 142.33C294.695 141.985 294.891 141.518 294.891 140.93C294.891 140.398 294.704 139.959 294.331 139.614C293.967 139.259 293.491 139.082 292.903 139.082C292.474 139.082 292.096 139.185 291.769 139.39C291.452 139.586 291.237 139.833 291.125 140.132L290.075 139.81C290.262 139.287 290.598 138.863 291.083 138.536C291.578 138.2 292.184 138.032 292.903 138.032C293.519 138.032 294.06 138.158 294.527 138.41C294.994 138.653 295.362 138.993 295.633 139.432C295.904 139.871 296.039 140.37 296.039 140.93C296.039 141.462 295.918 141.933 295.675 142.344C295.442 142.755 295.115 143.086 294.695 143.338C294.275 143.581 293.785 143.725 293.225 143.772V145.368H292.077ZM292.651 148.196C292.427 148.196 292.24 148.121 292.091 147.972C291.942 147.823 291.867 147.641 291.867 147.426C291.867 147.202 291.942 147.015 292.091 146.866C292.24 146.717 292.427 146.642 292.651 146.642C292.875 146.642 293.057 146.717 293.197 146.866C293.346 147.015 293.421 147.202 293.421 147.426C293.421 147.641 293.346 147.823 293.197 147.972C293.057 148.121 292.875 148.196 292.651 148.196Z" fill="#292929"/>
<rect x="16.5" y="335.5" width="377" height="37" rx="3.5" stroke="#CFCFCF"/>
<path d="M68.116 359V350.6H69.172L72.076 354.896L74.98 350.6H76.024V359H75.016V352.232L72.076 356.612L69.136 352.256V359H68.116ZM80.6164 359.144C80.0324 359.144 79.5164 359.012 79.0684 358.748C78.6204 358.476 78.2684 358.104 78.0124 357.632C77.7644 357.16 77.6404 356.616 77.6404 356C77.6404 355.384 77.7644 354.84 78.0124 354.368C78.2684 353.896 78.6164 353.528 79.0564 353.264C79.5044 352.992 80.0164 352.856 80.5924 352.856C81.1524 352.856 81.6364 352.996 82.0444 353.276C82.4524 353.548 82.7684 353.932 82.9924 354.428C83.2164 354.924 83.3284 355.508 83.3284 356.18H78.3724L78.6124 355.976C78.6124 356.456 78.6964 356.868 78.8644 357.212C79.0404 357.556 79.2844 357.82 79.5964 358.004C79.9084 358.18 80.2644 358.268 80.6644 358.268C81.0884 358.268 81.4444 358.168 81.7324 357.968C82.0284 357.768 82.2564 357.504 82.4164 357.176L83.2444 357.596C83.0924 357.908 82.8884 358.18 82.6324 358.412C82.3844 358.644 82.0884 358.824 81.7444 358.952C81.4084 359.08 81.0324 359.144 80.6164 359.144ZM78.6724 355.568L78.4204 355.376H82.5604L82.3084 355.58C82.3084 355.196 82.2324 354.864 82.0804 354.584C81.9284 354.304 81.7244 354.088 81.4684 353.936C81.2124 353.784 80.9164 353.708 80.5804 353.708C80.2524 353.708 79.9404 353.784 79.6444 353.936C79.3564 354.088 79.1204 354.304 78.9364 354.584C78.7604 354.856 78.6724 355.184 78.6724 355.568ZM86.6392 359.144C86.1992 359.144 85.8152 359.08 85.4872 358.952C85.1592 358.816 84.8832 358.64 84.6592 358.424C84.4432 358.208 84.2872 357.972 84.1912 357.716L85.0312 357.368C85.1672 357.64 85.3712 357.86 85.6432 358.028C85.9152 358.196 86.2152 358.28 86.5432 358.28C86.9192 358.28 87.2352 358.208 87.4912 358.064C87.7472 357.912 87.8752 357.7 87.8752 357.428C87.8752 357.18 87.7792 356.98 87.5872 356.828C87.4032 356.676 87.1272 356.552 86.7592 356.456L86.1832 356.3C85.6392 356.156 85.2152 355.94 84.9112 355.652C84.6072 355.356 84.4552 355.024 84.4552 354.656C84.4552 354.088 84.6392 353.648 85.0072 353.336C85.3832 353.016 85.9392 352.856 86.6752 352.856C87.0272 352.856 87.3472 352.908 87.6352 353.012C87.9232 353.116 88.1712 353.264 88.3792 353.456C88.5872 353.64 88.7392 353.86 88.8352 354.116L87.9952 354.488C87.8912 354.216 87.7192 354.02 87.4792 353.9C87.2392 353.78 86.9472 353.72 86.6032 353.72C86.2352 353.72 85.9472 353.8 85.7392 353.96C85.5312 354.112 85.4272 354.328 85.4272 354.608C85.4272 354.768 85.5112 354.92 85.6792 355.064C85.8552 355.2 86.1112 355.312 86.4472 355.4L87.0472 355.556C87.4392 355.652 87.7672 355.796 88.0312 355.988C88.2952 356.172 88.4952 356.384 88.6312 356.624C88.7672 356.864 88.8352 357.12 88.8352 357.392C88.8352 357.752 88.7392 358.064 88.5472 358.328C88.3552 358.592 88.0952 358.796 87.7672 358.94C87.4392 359.076 87.0632 359.144 86.6392 359.144ZM92.2291 359.144C91.7891 359.144 91.4051 359.08 91.0771 358.952C90.7491 358.816 90.4731 358.64 90.2491 358.424C90.0331 358.208 89.8771 357.972 89.7811 357.716L90.6211 357.368C90.7571 357.64 90.9611 357.86 91.2331 358.028C91.5051 358.196 91.8051 358.28 92.1331 358.28C92.5091 358.28 92.8251 358.208 93.0811 358.064C93.3371 357.912 93.4651 357.7 93.4651 357.428C93.4651 357.18 93.3691 356.98 93.1771 356.828C92.9931 356.676 92.7171 356.552 92.3491 356.456L91.7731 356.3C91.2291 356.156 90.8051 355.94 90.5011 355.652C90.1971 355.356 90.0451 355.024 90.0451 354.656C90.0451 354.088 90.2291 353.648 90.5971 353.336C90.9731 353.016 91.5291 352.856 92.2651 352.856C92.6171 352.856 92.9371 352.908 93.2251 353.012C93.5131 353.116 93.7611 353.264 93.9691 353.456C94.1771 353.64 94.3291 353.86 94.4251 354.116L93.5851 354.488C93.4811 354.216 93.3091 354.02 93.0691 353.9C92.8291 353.78 92.5371 353.72 92.1931 353.72C91.8251 353.72 91.5371 353.8 91.3291 353.96C91.1211 354.112 91.0171 354.328 91.0171 354.608C91.0171 354.768 91.1011 354.92 91.2691 355.064C91.4451 355.2 91.7011 355.312 92.0371 355.4L92.6371 355.556C93.0291 355.652 93.3571 355.796 93.6211 355.988C93.8851 356.172 94.0851 356.384 94.2211 356.624C94.3571 356.864 94.4251 357.12 94.4251 357.392C94.4251 357.752 94.3291 358.064 94.1371 358.328C93.9451 358.592 93.6851 358.796 93.3571 358.94C93.0291 359.076 92.6531 359.144 92.2291 359.144ZM99.4149 359L99.3669 358.016V355.832C99.3669 355.36 99.3149 354.972 99.2109 354.668C99.1069 354.356 98.9429 354.12 98.7189 353.96C98.4949 353.8 98.2029 353.72 97.8429 353.72C97.5149 353.72 97.2309 353.788 96.9909 353.924C96.7589 354.052 96.5669 354.26 96.4149 354.548L95.5509 354.212C95.7029 353.932 95.8869 353.692 96.1029 353.492C96.3189 353.284 96.5709 353.128 96.8589 353.024C97.1469 352.912 97.4749 352.856 97.8429 352.856C98.4029 352.856 98.8629 352.968 99.2229 353.192C99.5909 353.408 99.8669 353.732 100.051 354.164C100.235 354.588 100.323 355.116 100.315 355.748L100.303 359H99.4149ZM97.6149 359.144C96.9109 359.144 96.3589 358.984 95.9589 358.664C95.5669 358.336 95.3709 357.884 95.3709 357.308C95.3709 356.7 95.5709 356.236 95.9709 355.916C96.3789 355.588 96.9469 355.424 97.6749 355.424H99.3909V356.228H97.8909C97.3309 356.228 96.9309 356.32 96.6909 356.504C96.4589 356.688 96.3429 356.952 96.3429 357.296C96.3429 357.608 96.4589 357.856 96.6909 358.04C96.9229 358.216 97.2469 358.304 97.6629 358.304C98.0069 358.304 98.3069 358.232 98.5629 358.088C98.8189 357.936 99.0149 357.724 99.1509 357.452C99.2949 357.172 99.3669 356.844 99.3669 356.468H99.7749C99.7749 357.284 99.5909 357.936 99.2229 358.424C98.8549 358.904 98.3189 359.144 97.6149 359.144ZM104.236 361.544C103.852 361.544 103.5 361.504 103.18 361.424C102.868 361.352 102.6 361.268 102.376 361.172C102.16 361.084 102.004 361.008 101.908 360.944L102.268 360.164C102.372 360.22 102.52 360.288 102.712 360.368C102.904 360.456 103.128 360.528 103.384 360.584C103.648 360.648 103.928 360.68 104.224 360.68C104.608 360.68 104.952 360.6 105.256 360.44C105.568 360.288 105.808 360.044 105.976 359.708C106.152 359.38 106.24 358.956 106.24 358.436V353H107.2V358.424C107.2 359.112 107.072 359.688 106.816 360.152C106.56 360.616 106.208 360.964 105.76 361.196C105.312 361.428 104.804 361.544 104.236 361.544ZM104.2 358.952C103.664 358.952 103.192 358.824 102.784 358.568C102.376 358.312 102.056 357.956 101.824 357.5C101.6 357.036 101.488 356.508 101.488 355.916C101.488 355.308 101.6 354.776 101.824 354.32C102.056 353.856 102.376 353.496 102.784 353.24C103.192 352.984 103.664 352.856 104.2 352.856C104.704 352.856 105.144 352.984 105.52 353.24C105.896 353.496 106.188 353.856 106.396 354.32C106.612 354.776 106.72 355.308 106.72 355.916C106.72 356.516 106.612 357.044 106.396 357.5C106.188 357.956 105.896 358.312 105.52 358.568C105.144 358.824 104.704 358.952 104.2 358.952ZM104.428 358.124C104.78 358.124 105.092 358.028 105.364 357.836C105.636 357.644 105.848 357.384 106 357.056C106.152 356.72 106.228 356.332 106.228 355.892C106.228 355.468 106.148 355.092 105.988 354.764C105.836 354.428 105.624 354.168 105.352 353.984C105.088 353.792 104.776 353.696 104.416 353.696C104.04 353.696 103.704 353.792 103.408 353.984C103.12 354.168 102.892 354.428 102.724 354.764C102.564 355.092 102.484 355.468 102.484 355.892C102.484 356.332 102.568 356.72 102.736 357.056C102.904 357.384 103.132 357.644 103.42 357.836C103.716 358.028 104.052 358.124 104.428 358.124ZM111.507 359.144C110.923 359.144 110.407 359.012 109.959 358.748C109.511 358.476 109.159 358.104 108.903 357.632C108.655 357.16 108.531 356.616 108.531 356C108.531 355.384 108.655 354.84 108.903 354.368C109.159 353.896 109.507 353.528 109.947 353.264C110.395 352.992 110.907 352.856 111.483 352.856C112.043 352.856 112.527 352.996 112.935 353.276C113.343 353.548 113.659 353.932 113.883 354.428C114.107 354.924 114.219 355.508 114.219 356.18H109.263L109.503 355.976C109.503 356.456 109.587 356.868 109.755 357.212C109.931 357.556 110.175 357.82 110.487 358.004C110.799 358.18 111.155 358.268 111.555 358.268C111.979 358.268 112.335 358.168 112.623 357.968C112.919 357.768 113.147 357.504 113.307 357.176L114.135 357.596C113.983 357.908 113.779 358.18 113.523 358.412C113.275 358.644 112.979 358.824 112.635 358.952C112.299 359.08 111.923 359.144 111.507 359.144ZM109.563 355.568L109.311 355.376H113.451L113.199 355.58C113.199 355.196 113.123 354.864 112.971 354.584C112.819 354.304 112.615 354.088 112.359 353.936C112.103 353.784 111.807 353.708 111.471 353.708C111.143 353.708 110.831 353.784 110.535 353.936C110.247 354.088 110.011 354.304 109.827 354.584C109.651 354.856 109.563 355.184 109.563 355.568Z" fill="#B8B8B8"/>
</g>
<defs>
<clipPath id="clip0_504_3566">
<rect width="410" height="389" rx="8" fill="white"/>
</clipPath>
</defs>
</svg>
