<svg width="40" height="40" viewBox="0 0 40 40" fill="none" xmlns="http://www.w3.org/2000/svg">
<g clip-path="url(#clip0_693_7951)">
<path d="M20 0C8.735 0 0 8.255 0 19.4C0 25.23 2.39 30.27 6.28 33.75C6.605 34.04 6.805 34.45 6.815 34.89L6.925 38.45C6.93301 38.7119 7.00524 38.9679 7.13533 39.1954C7.26543 39.4229 7.44941 39.6149 7.67111 39.7547C7.89281 39.8944 8.14544 39.9775 8.40679 39.9968C8.66815 40.016 8.93023 39.9708 9.17 39.865L13.14 38.115C13.475 37.965 13.855 37.94 14.21 38.035C16.035 38.535 17.975 38.805 20 38.805C31.265 38.805 40 30.55 40 19.405C40 8.26 31.265 0 20 0Z" fill="url(#paint0_radial_693_7951)"/>
<path d="M7.9899 25.0755L13.8649 15.7555C14.0859 15.4046 14.3773 15.1033 14.7206 14.8707C15.0639 14.6381 15.4517 14.4792 15.8595 14.404C16.2673 14.3288 16.6863 14.339 17.09 14.434C17.4937 14.5289 17.8733 14.7065 18.2049 14.9555L22.8799 18.4605C23.0886 18.6167 23.3425 18.7008 23.6032 18.6999C23.8639 18.699 24.1173 18.6132 24.3249 18.4555L30.6349 13.6655C31.4749 13.0255 32.5749 14.0355 32.0149 14.9305L26.1349 24.2455C25.9139 24.5964 25.6225 24.8976 25.2792 25.1302C24.9359 25.3629 24.5481 25.5218 24.1403 25.5969C23.7325 25.6721 23.3135 25.6619 22.9098 25.567C22.5061 25.4721 22.1265 25.2945 21.7949 25.0455L17.1199 21.5405C16.9112 21.3842 16.6573 21.3002 16.3966 21.3011C16.1358 21.302 15.8825 21.3878 15.6749 21.5455L9.3649 26.3355C8.5249 26.9755 7.4249 25.9705 7.9899 25.0755Z" fill="white"/>
</g>
<defs>
<radialGradient id="paint0_radial_693_7951" cx="0" cy="0" r="1" gradientUnits="userSpaceOnUse" gradientTransform="translate(6.7 40) scale(44 44)">
<stop stop-color="#0099FF"/>
<stop offset="0.6" stop-color="#A033FF"/>
<stop offset="0.9" stop-color="#FF5280"/>
<stop offset="1" stop-color="#FF7061"/>
</radialGradient>
<clipPath id="clip0_693_7951">
<rect width="40" height="40" fill="white"/>
</clipPath>
</defs>
</svg>
