<svg width="40" height="40" viewBox="0 0 40 40" fill="none" xmlns="http://www.w3.org/2000/svg">
<g clip-path="url(#clip0_693_7921)">
<path d="M20.0065 0C11.6567 0 9.21471 0.00861719 8.74003 0.0479999C7.02651 0.190473 5.96026 0.460347 4.79861 1.03884C3.90341 1.48351 3.19738 1.99893 2.50058 2.72146C1.2316 4.03911 0.462512 5.66016 0.184097 7.5871C0.0487445 8.52256 0.00936147 8.71334 0.00136399 13.4916C-0.00170499 15.0844 0.00136399 17.1805 0.00136399 19.9921C0.00136399 28.3375 0.010586 30.7777 0.0505885 31.2516C0.189025 32.9194 0.450508 33.9687 1.00425 35.1165C2.06252 37.3136 4.08366 38.963 6.46477 39.5784C7.28923 39.7907 8.19983 39.9077 9.36884 39.9631C9.86413 39.9846 14.9124 40 19.9638 40C25.0151 40 30.0665 39.9938 30.5495 39.9692C31.9031 39.9055 32.6891 39.8 33.5581 39.5753C35.9546 38.9568 37.9389 37.3321 39.0186 35.1042C39.5616 33.9841 39.837 32.8948 39.9616 31.314C39.9886 30.9694 40 25.4745 40 19.9869C40 14.4985 39.9877 9.01368 39.9606 8.66903C39.8345 7.06274 39.5592 5.98266 38.9987 4.84102C38.5387 3.90647 38.0281 3.20856 37.2867 2.49499C35.9635 1.23087 34.3454 0.461571 32.4171 0.183398C31.4828 0.0483024 31.2967 0.00829984 26.5161 0H20.0065Z" fill="url(#paint0_radial_693_7921)"/>
<path d="M20.0065 0C11.6567 0 9.21471 0.00861719 8.74003 0.0479999C7.02651 0.190473 5.96026 0.460347 4.79861 1.03884C3.90341 1.48351 3.19738 1.99893 2.50058 2.72146C1.2316 4.03911 0.462512 5.66016 0.184097 7.5871C0.0487445 8.52256 0.00936147 8.71334 0.00136399 13.4916C-0.00170499 15.0844 0.00136399 17.1805 0.00136399 19.9921C0.00136399 28.3375 0.010586 30.7777 0.0505885 31.2516C0.189025 32.9194 0.450508 33.9687 1.00425 35.1165C2.06252 37.3136 4.08366 38.963 6.46477 39.5784C7.28923 39.7907 8.19983 39.9077 9.36884 39.9631C9.86413 39.9846 14.9124 40 19.9638 40C25.0151 40 30.0665 39.9938 30.5495 39.9692C31.9031 39.9055 32.6891 39.8 33.5581 39.5753C35.9546 38.9568 37.9389 37.3321 39.0186 35.1042C39.5616 33.9841 39.837 32.8948 39.9616 31.314C39.9886 30.9694 40 25.4745 40 19.9869C40 14.4985 39.9877 9.01368 39.9606 8.66903C39.8345 7.06274 39.5592 5.98266 38.9987 4.84102C38.5387 3.90647 38.0281 3.20856 37.2867 2.49499C35.9635 1.23087 34.3454 0.461571 32.4171 0.183398C31.4828 0.0483024 31.2967 0.00829984 26.5161 0H20.0065Z" fill="url(#paint1_radial_693_7921)"/>
<path d="M20.0065 0C11.6567 0 9.21471 0.00861719 8.74003 0.0479999C7.02651 0.190473 5.96026 0.460347 4.79861 1.03884C3.90341 1.48351 3.19738 1.99893 2.50058 2.72146C1.2316 4.03911 0.462512 5.66016 0.184097 7.5871C0.0487445 8.52256 0.00936147 8.71334 0.00136399 13.4916C-0.00170499 15.0844 0.00136399 17.1805 0.00136399 19.9921C0.00136399 28.3375 0.010586 30.7777 0.0505885 31.2516C0.189025 32.9194 0.450508 33.9687 1.00425 35.1165C2.06252 37.3136 4.08366 38.963 6.46477 39.5784C7.28923 39.7907 8.19983 39.9077 9.36884 39.9631C9.86413 39.9846 14.9124 40 19.9638 40C25.0151 40 30.0665 39.9938 30.5495 39.9692C31.9031 39.9055 32.6891 39.8 33.5581 39.5753C35.9546 38.9568 37.9389 37.3321 39.0186 35.1042C39.5616 33.9841 39.837 32.8948 39.9616 31.314C39.9886 30.9694 40 25.4745 40 19.9869C40 14.4985 39.9877 9.01368 39.9606 8.66903C39.8345 7.06274 39.5592 5.98266 38.9987 4.84102C38.5387 3.90647 38.0281 3.20856 37.2867 2.49499C35.9635 1.23087 34.3454 0.461571 32.4171 0.183398C31.4828 0.0483024 31.2967 0.00829984 26.5161 0H20.0065Z" fill="url(#paint2_radial_693_7921)"/>
<path d="M20.0065 0C11.6567 0 9.21471 0.00861719 8.74003 0.0479999C7.02651 0.190473 5.96026 0.460347 4.79861 1.03884C3.90341 1.48351 3.19738 1.99893 2.50058 2.72146C1.2316 4.03911 0.462512 5.66016 0.184097 7.5871C0.0487445 8.52256 0.00936147 8.71334 0.00136399 13.4916C-0.00170499 15.0844 0.00136399 17.1805 0.00136399 19.9921C0.00136399 28.3375 0.010586 30.7777 0.0505885 31.2516C0.189025 32.9194 0.450508 33.9687 1.00425 35.1165C2.06252 37.3136 4.08366 38.963 6.46477 39.5784C7.28923 39.7907 8.19983 39.9077 9.36884 39.9631C9.86413 39.9846 14.9124 40 19.9638 40C25.0151 40 30.0665 39.9938 30.5495 39.9692C31.9031 39.9055 32.6891 39.8 33.5581 39.5753C35.9546 38.9568 37.9389 37.3321 39.0186 35.1042C39.5616 33.9841 39.837 32.8948 39.9616 31.314C39.9886 30.9694 40 25.4745 40 19.9869C40 14.4985 39.9877 9.01368 39.9606 8.66903C39.8345 7.06274 39.5592 5.98266 38.9987 4.84102C38.5387 3.90647 38.0281 3.20856 37.2867 2.49499C35.9635 1.23087 34.3454 0.461571 32.4171 0.183398C31.4828 0.0483024 31.2967 0.00829984 26.5161 0H20.0065Z" fill="url(#paint3_radial_693_7921)"/>
<path d="M20.0083 5.13574C15.9692 5.13574 15.4623 5.15338 13.876 5.22553C12.2927 5.29797 11.212 5.54845 10.2663 5.91597C9.28816 6.29554 8.45841 6.8033 7.63176 7.62964C6.8045 8.45569 6.29635 9.28482 5.91525 10.2619C5.54654 11.2072 5.29556 12.2874 5.22431 13.8689C5.15336 15.4541 5.13477 15.9609 5.13477 19.997C5.13477 24.0331 5.15274 24.538 5.22461 26.1232C5.29744 27.7053 5.54809 28.7853 5.91556 29.7302C6.29573 30.7076 6.80387 31.5368 7.63083 32.3628C8.45718 33.1895 9.28692 33.6985 10.2645 34.078C11.2107 34.4455 12.2918 34.696 13.8747 34.7685C15.4611 34.8406 15.9677 34.8582 20.0064 34.8582C24.0458 34.8582 24.5512 34.8406 26.1375 34.7685C27.7208 34.696 28.8028 34.4455 29.749 34.078C30.7269 33.6985 31.5554 33.1895 32.3817 32.3628C33.209 31.5368 33.7172 30.7076 34.0983 29.7305C34.4639 28.7853 34.7148 27.705 34.7892 26.1236C34.8605 24.5384 34.879 24.0331 34.879 19.997C34.879 15.9609 34.8605 15.4544 34.7892 13.8692C34.7148 12.2871 34.4639 11.2072 34.0983 10.2623C33.7172 9.28482 33.209 8.45568 32.3817 7.62964C31.5545 6.80298 30.7272 6.29523 29.7481 5.91596C28.8 5.54845 27.7187 5.29797 26.1354 5.22553C24.549 5.15338 24.044 5.13574 20.0037 5.13574H20.0083ZM18.6741 7.81387C19.0701 7.81325 19.5119 7.81387 20.0083 7.81387C23.9792 7.81387 24.4498 7.82811 26.0179 7.89932C27.468 7.96558 28.255 8.20768 28.7792 8.4111C29.4733 8.68046 29.9681 9.00246 30.4883 9.52259C31.0088 10.0427 31.3311 10.5381 31.6013 11.2316C31.8048 11.7549 32.0474 12.5413 32.1134 13.9903C32.1847 15.5569 32.2002 16.0275 32.2002 19.9936C32.2002 23.9597 32.1847 24.4303 32.1134 25.9969C32.0471 27.4459 31.8048 28.2323 31.6013 28.7555C31.3317 29.4491 31.0088 29.9429 30.4883 30.4627C29.9678 30.9829 29.4736 31.3049 28.7792 31.5742C28.2556 31.7786 27.468 32.0201 26.0179 32.0863C24.4502 32.1575 23.9792 32.173 20.0083 32.173C16.0371 32.173 15.5664 32.1575 13.9987 32.0863C12.5486 32.0195 11.7616 31.7773 11.2371 31.5739C10.543 31.3046 10.0473 30.9826 9.52674 30.4624C9.00621 29.9423 8.68398 29.4481 8.41379 28.7543C8.21023 28.2311 7.96763 27.4446 7.90164 25.9957C7.83037 24.4291 7.81611 23.9585 7.81611 19.9899C7.81611 16.0213 7.83037 15.5532 7.90164 13.9866C7.96795 12.5376 8.21023 11.7512 8.41379 11.2273C8.68335 10.5338 9.00621 10.0384 9.52674 9.51827C10.0473 8.99812 10.543 8.67613 11.2371 8.40615C11.7613 8.2018 12.5486 7.96032 13.9987 7.89374C15.3706 7.83182 15.9023 7.81325 18.6741 7.81014L18.6741 7.81387ZM27.947 10.2814C26.9617 10.2814 26.1623 11.0793 26.1623 12.0642C26.1623 13.0487 26.9617 13.8475 27.947 13.8475C28.9323 13.8475 29.7317 13.0487 29.7317 12.0642C29.7317 11.0796 28.9323 10.2808 27.947 10.2808L27.947 10.2814ZM20.0083 12.3651C15.7905 12.3651 12.3708 15.7823 12.3708 19.997C12.3708 24.2117 15.7905 27.6273 20.0083 27.6273C24.2261 27.6273 27.6446 24.2117 27.6446 19.997C27.6446 15.7823 24.2258 12.3651 20.008 12.3651H20.0083ZM20.0083 15.0432C22.746 15.0432 24.9657 17.261 24.9657 19.997C24.9657 22.7327 22.746 24.9507 20.0083 24.9507C17.2703 24.9507 15.0509 22.7327 15.0509 19.997C15.0509 17.261 17.2703 15.0432 20.0083 15.0432Z" fill="white"/>
</g>
<defs>
<radialGradient id="paint0_radial_693_7921" cx="0" cy="0" r="1" gradientUnits="userSpaceOnUse" gradientTransform="translate(38.7084 18.7485) rotate(164.25) scale(25.5577 18.4131)">
<stop stop-color="#FF005F"/>
<stop offset="1" stop-color="#FC01D8"/>
</radialGradient>
<radialGradient id="paint1_radial_693_7921" cx="0" cy="0" r="1" gradientUnits="userSpaceOnUse" gradientTransform="translate(10.6247 43.0808) rotate(-90) scale(31.9288 33.8757)">
<stop stop-color="#FFCC00"/>
<stop offset="0.1242" stop-color="#FFCC00"/>
<stop offset="0.5672" stop-color="#FE4A05"/>
<stop offset="0.6942" stop-color="#FF0F3F"/>
<stop offset="1" stop-color="#FE0657" stop-opacity="0"/>
</radialGradient>
<radialGradient id="paint2_radial_693_7921" cx="0" cy="0" r="1" gradientUnits="userSpaceOnUse" gradientTransform="translate(21.0108 39.4359) rotate(-59.8703) scale(13.2028 17.1886)">
<stop stop-color="#FFCC00"/>
<stop offset="1" stop-color="#FFCC00" stop-opacity="0"/>
</radialGradient>
<radialGradient id="paint3_radial_693_7921" cx="0" cy="0" r="1" gradientUnits="userSpaceOnUse" gradientTransform="translate(5.42714 1.62879) rotate(164.274) scale(25.2742 8.61091)">
<stop stop-color="#780CFF"/>
<stop offset="1" stop-color="#820BFF" stop-opacity="0"/>
</radialGradient>
<clipPath id="clip0_693_7921">
<rect width="40" height="40" fill="white"/>
</clipPath>
</defs>
</svg>
