<svg width="40" height="40" viewBox="0 0 40 40" fill="none" xmlns="http://www.w3.org/2000/svg">
<g clip-path="url(#clip0_693_7937)">
<path d="M18.0482 39.0324C15.8162 38.8884 13.4962 38.2324 11.4322 37.1604C9.48018 36.1364 9.46418 36.1364 9.13618 36.2244C8.97618 36.2644 8.42418 36.4164 7.92018 36.5604C6.53618 36.9444 5.22418 37.2804 4.64018 37.4004C4.35218 37.4644 3.91218 37.5844 3.66418 37.6724C3.40818 37.7684 3.11218 37.8404 3.00818 37.8404C2.89618 37.8404 2.72018 37.8724 2.60818 37.9204C2.43218 37.9844 2.38418 37.9684 2.27218 37.8004C2.16018 37.6244 2.16018 37.5604 2.31218 36.9844C2.40018 36.6404 2.49618 36.2724 2.52818 36.1604C2.60818 35.8244 2.92818 34.6804 3.40018 33.0164C4.01618 30.8644 4.01618 30.8404 3.32018 29.6804C2.16818 27.7364 1.31218 25.6004 0.912177 23.6804C0.512177 21.7444 0.480177 18.6164 0.840177 16.6804C1.03218 15.6244 1.71218 13.2164 2.05618 12.3684C2.93618 10.2004 4.27218 8.2164 6.08018 6.3924C7.65618 4.8084 9.43218 3.5284 11.3922 2.5604C13.2562 1.6404 14.6082 1.2004 16.8402 0.792396C18.0322 0.576396 20.6002 0.496396 21.8322 0.632396C23.2802 0.800396 25.7842 1.3764 26.5922 1.7204C26.7282 1.7764 27.1282 1.9444 27.4802 2.0964C28.8802 2.6724 30.5122 3.6724 31.8802 4.7764C36.2002 8.2564 38.7682 13.2804 39.1122 18.9204C39.3682 23.0884 38.3682 26.9444 36.1602 30.2484C34.0562 33.3924 31.5362 35.6564 28.4402 37.1604C25.0882 38.7924 22.2642 39.2964 18.0482 39.0324Z" fill="#02E677"/>
<path d="M25.4002 30.6722C25.3122 30.6562 25.0322 30.5842 24.7762 30.5122C24.5282 30.4482 24.1202 30.3602 23.8802 30.3202C23.6402 30.2802 23.3282 30.1922 23.1842 30.1282C23.0402 30.0642 22.7442 29.9682 22.5202 29.9122C22.3042 29.8642 22.0482 29.7762 21.9602 29.7202C21.8722 29.6722 21.6562 29.5762 21.4802 29.5202C21.3042 29.4642 21.0002 29.3362 20.8002 29.2322C20.6002 29.1282 20.3842 29.0402 20.3042 29.0402C20.2322 29.0402 20.1122 28.9842 20.0402 28.9122C19.9682 28.8402 19.7922 28.7362 19.6562 28.6882C19.4402 28.6082 18.9122 28.3362 18.4802 28.0722C18.4162 28.0322 18.2322 27.9282 18.0722 27.8482C17.9202 27.7602 17.7442 27.6322 17.6882 27.5682C17.6242 27.4962 17.5282 27.4402 17.4722 27.4402C17.4082 27.4402 17.2962 27.3762 17.2162 27.3042C17.1362 27.2242 16.8562 27.0162 16.5922 26.8402C15.8322 26.3362 15.2562 25.8242 13.6802 24.2402C11.9282 22.4962 11.0962 21.5282 10.3922 20.4402C10.2802 20.2642 10.1202 20.0162 10.0322 19.8882C9.60018 19.2482 8.80018 17.7362 8.80018 17.5682C8.80018 17.5042 8.74418 17.4162 8.68018 17.3602C8.61618 17.3042 8.53618 17.1362 8.51218 16.9682C8.48018 16.8082 8.36818 16.4482 8.25618 16.1602C8.08018 15.6882 8.05618 15.5282 8.05618 14.4002C8.04818 13.2002 8.06418 13.1362 8.31218 12.4002C8.45618 11.9842 8.62418 11.5842 8.68818 11.5122C8.75218 11.4482 8.80018 11.3602 8.80018 11.3202C8.80018 11.1922 9.52818 10.1602 9.87218 9.80017C10.1682 9.48817 10.3842 9.33617 11.0402 8.98417C11.3282 8.83217 12.9762 8.84017 13.2722 9.00017C13.5762 9.15217 13.8642 9.50417 14.0722 9.97617C14.1762 10.1842 14.3362 10.5442 14.4402 10.7602C14.5442 10.9842 14.7202 11.3602 14.8322 11.6002C14.9442 11.8402 15.0402 12.0882 15.0402 12.1442C15.0402 12.2002 15.1122 12.3842 15.2002 12.5442C15.6082 13.3122 15.7922 13.8802 15.8242 14.5442C15.8482 15.2082 15.8482 15.2162 15.5442 15.6642C15.3762 15.9122 15.1762 16.1762 15.1042 16.2562C15.0242 16.3362 14.9602 16.4242 14.9602 16.4642C14.9602 16.4962 14.8002 16.6962 14.6002 16.9042C13.8402 17.6962 13.8802 18.2242 14.8002 19.5602C15.6562 20.7922 16.7842 22.0082 17.9122 22.9202C18.2322 23.1842 18.5842 23.4802 18.6962 23.5842C18.8002 23.6802 18.9202 23.7602 18.9522 23.7602C18.9842 23.7602 19.0802 23.8322 19.1522 23.9122C19.2322 24.0002 19.4082 24.1122 19.5442 24.1682C19.6882 24.2242 19.8562 24.3122 19.9202 24.3682C20.0882 24.5042 21.0402 25.0082 21.2802 25.0802C21.3922 25.1122 21.5282 25.1762 21.5842 25.2242C21.6482 25.2722 21.9282 25.3922 22.2162 25.4962C22.7042 25.6642 22.7442 25.6642 22.9442 25.5442C23.1842 25.4002 24.2082 24.3522 24.7362 23.7122C25.2482 23.1042 25.5202 22.9362 26.0322 22.9442C26.3522 22.9442 26.5762 23.0082 26.9202 23.1922C27.1762 23.3282 27.4242 23.4402 27.4802 23.4402C27.5362 23.4402 27.6242 23.4962 27.6802 23.5602C27.7362 23.6322 27.9362 23.7202 28.1282 23.7682C28.3202 23.8162 28.5202 23.9042 28.5682 23.9682C28.6162 24.0322 28.8082 24.1202 28.9922 24.1682C29.1682 24.2162 29.4082 24.3202 29.5202 24.4002C29.6322 24.4802 29.8322 24.5682 29.9762 24.5922C30.1202 24.6242 30.3122 24.7122 30.4162 24.7922C30.5202 24.8722 30.7122 24.9602 30.8402 24.9922C30.9762 25.0242 31.1762 25.1442 31.3042 25.2642C31.4962 25.4482 31.5202 25.5282 31.5202 26.0002C31.5202 26.3602 31.4562 26.7122 31.3202 27.1042C31.2082 27.4162 31.1202 27.7282 31.1202 27.7922C31.1202 27.9842 30.4562 28.7362 29.8322 29.2482C28.7522 30.1362 27.5442 30.6242 26.2882 30.6802C25.8882 30.6962 25.4882 30.6962 25.4002 30.6722Z" fill="#F6FEFA"/>
</g>
<defs>
<clipPath id="clip0_693_7937">
<rect width="40" height="40" fill="white"/>
</clipPath>
</defs>
</svg>
