<svg width="75" height="40" viewBox="0 0 75 40" fill="none" xmlns="http://www.w3.org/2000/svg">
<g clip-path="url(#clip0_693_7964)">
<path d="M17.6123 13.9266L17.6018 13.8931L24.2703 7.78818V4.84668H13.5717V7.78818H19.962L19.9725 7.81636L13.3691 13.9266V16.8681H24.3777V13.9266H17.6123Z" fill="#201515"/>
<path d="M30.9446 4.56641C29.7105 4.56641 28.7048 4.75253 27.9273 5.12477C27.2033 5.44917 26.5932 5.98367 26.1765 6.65892C25.778 7.33862 25.5276 8.09495 25.4421 8.87825L28.6883 9.33446C28.8057 8.64282 29.0406 8.15258 29.3928 7.86371C29.7933 7.56158 30.2868 7.40892 30.7878 7.43217C31.4466 7.43217 31.9245 7.60832 32.2217 7.96058C32.5158 8.31285 32.6655 8.80076 32.6655 9.44366V9.76422H29.5443C27.9555 9.76422 26.8142 10.1165 26.1203 10.821C25.4262 11.5256 25.0799 12.4556 25.0811 13.6111C25.0811 14.7947 25.4274 15.6754 26.1203 16.2531C26.813 16.8309 27.6843 17.118 28.7342 17.1144C30.0363 17.1144 31.038 16.6665 31.739 15.7705C32.153 15.2199 32.4486 14.5897 32.6073 13.9193H32.7254L33.1728 16.8607H36.1143V9.41196C36.1143 7.87251 35.7086 6.68007 34.8972 5.83461C34.0857 4.98915 32.7683 4.56641 30.9446 4.56641ZM31.9733 13.7485C31.5065 14.1377 30.8954 14.3315 30.1344 14.3315C29.5073 14.3315 29.0717 14.2217 28.8275 14.0021C28.7085 13.8982 28.6137 13.7694 28.5501 13.6248C28.4865 13.4802 28.4555 13.3234 28.4594 13.1654C28.4523 13.0165 28.4759 12.8677 28.5282 12.7281C28.5806 12.5885 28.6608 12.4611 28.764 12.3534C28.8756 12.2488 29.0073 12.1678 29.1512 12.1154C29.295 12.063 29.4479 12.0403 29.6007 12.0487H32.6708V12.2513C32.6771 12.5376 32.6174 12.8215 32.4965 13.0811C32.3754 13.3407 32.1965 13.569 31.9733 13.7485Z" fill="#201515"/>
<path d="M53.8995 4.84668H50.4243V16.8698H53.8995V4.84668Z" fill="#201515"/>
<path d="M74.4165 4.84668C73.4349 4.84668 72.6611 5.19307 72.0951 5.88589C71.6888 6.38377 71.3799 7.11945 71.1686 8.09289H71.0664L70.6121 4.84668H67.644V16.8681H71.1194V10.7032C71.1194 9.9259 71.3013 9.32997 71.6654 8.91546C72.0293 8.50095 72.701 8.29369 73.6803 8.29369H74.9996V4.84668H74.4165Z" fill="#201515"/>
<path d="M64.1988 5.23974C63.3874 4.75713 62.3641 4.51641 61.1287 4.51758C59.1843 4.51758 57.6624 5.07125 56.5633 6.17856C55.4641 7.28588 54.9147 8.8124 54.9147 10.7581C54.8866 11.9345 55.1434 13.1001 55.6632 14.1558C56.139 15.0965 56.88 15.8773 57.7945 16.4015C58.7151 16.9336 59.8101 17.2001 61.0794 17.2012C62.1774 17.2012 63.0945 17.0321 63.8307 16.694C64.5229 16.3903 65.1256 15.9142 65.5815 15.3113C66.0156 14.7194 66.3379 14.0533 66.5326 13.3456L63.5383 12.5072C63.4123 12.9674 63.1696 13.3872 62.8338 13.726C62.4955 14.0642 61.929 14.2333 61.134 14.2333C60.1888 14.2333 59.4843 13.9627 59.0203 13.4213C58.684 13.0303 58.4727 12.4719 58.3792 11.748H66.5785C66.612 11.4098 66.6295 11.1263 66.6295 10.8973V10.1487C66.6493 9.14304 66.4416 8.14592 66.0219 7.23186C65.629 6.39918 64.9935 5.70477 64.1988 5.23974ZM61.0284 7.38333C62.4375 7.38333 63.2365 8.07672 63.4255 9.46352H58.4409C58.5201 9.0008 58.7118 8.56466 58.9993 8.19357C59.4561 7.65224 60.1324 7.38216 61.0284 7.38333Z" fill="#201515"/>
<path d="M52.1988 0.00112782C51.9373 -0.00776338 51.6768 0.0359894 51.4326 0.129789C51.1884 0.223588 50.9656 0.365515 50.7774 0.547141C50.5918 0.730507 50.4463 0.95046 50.3502 1.19303C50.254 1.43559 50.2093 1.69548 50.2191 1.95622C50.2096 2.21865 50.2545 2.48019 50.3506 2.72452C50.4469 2.96887 50.5924 3.19077 50.7781 3.37636C50.964 3.56196 51.186 3.70728 51.4303 3.80326C51.6748 3.89925 51.9364 3.94383 52.1988 3.93423C52.4595 3.94408 52.7196 3.89952 52.9621 3.80338C53.2047 3.70726 53.4246 3.56166 53.6079 3.37587C53.7897 3.18816 53.9316 2.96563 54.025 2.72166C54.1186 2.47768 54.1618 2.21733 54.1521 1.95622C54.1641 1.69666 54.1219 1.43745 54.028 1.19513C53.9343 0.952819 53.791 0.73273 53.6074 0.548916C53.4237 0.365101 53.2038 0.221602 52.9615 0.127585C52.7193 0.0335681 52.4601 -0.00889758 52.2006 0.00289089L52.1988 0.00112782Z" fill="#201515"/>
<path d="M45.0209 4.51758C43.8374 4.51758 42.8863 4.88922 42.1676 5.63251C41.6356 6.18324 41.2453 7.00522 40.9963 8.09844H40.8853L40.4309 4.85223H37.4629V20.3242H40.9381V13.9515H41.065C41.171 14.3764 41.3197 14.7895 41.5088 15.1844C41.8028 15.8278 42.2849 16.367 42.8915 16.7309C43.5205 17.0741 44.2289 17.245 44.9452 17.2259C46.4002 17.2259 47.5081 16.6594 48.269 15.5261C49.0298 14.393 49.4104 12.8119 49.4104 10.7828C49.4104 8.82297 49.0423 7.28881 48.3059 6.18031C47.5697 5.07183 46.4747 4.51758 45.0209 4.51758ZM45.3733 13.2293C44.9681 13.8165 44.3341 14.11 43.471 14.11C43.1152 14.1264 42.7604 14.0578 42.4364 13.9099C42.1123 13.762 41.8282 13.5389 41.6075 13.2593C41.1577 12.6945 40.9334 11.9212 40.9346 10.9395V10.7106C40.9346 9.71362 41.1589 8.95036 41.6075 8.42077C42.056 7.8912 42.6772 7.62933 43.471 7.63521C44.3494 7.63521 44.9875 7.91409 45.3856 8.47185C45.7837 9.02962 45.9827 9.80757 45.9827 10.8057C45.9851 11.8378 45.7831 12.6457 45.3767 13.2293H45.3733Z" fill="#201515"/>
<path d="M12.0231 13.9268H0V16.8718H12.0231V13.9268Z" fill="#FF4F00"/>
</g>
<defs>
<clipPath id="clip0_693_7964">
<rect width="75" height="20.4" fill="white"/>
</clipPath>
</defs>
</svg>
